<svg width="25" height="25" viewBox="0 0 25 25" fill="none" xmlns="http://www.w3.org/2000/svg">
<g clip-path="url(#clip0_11010_34223)">
<path d="M0 15.3242V18.6307C0 20.0016 1.08871 20.9694 2.41935 20.9694H22.5806C23.9113 20.9694 25 20.0016 25 18.6307V15.3242H0Z" fill="#4C4B4B"/>
<path d="M22.5806 4.03125H2.41935C1.08871 4.03125 0 4.99899 0 6.36996V9.67641H25V6.36996C25 4.99899 23.9113 4.03125 22.5806 4.03125Z" fill="#49A948"/>
<path d="M25 9.67578H0V15.3209H25V9.67578Z" fill="white"/>
<path d="M22.4996 20.9694C23.8303 20.9694 24.9996 20.0016 24.9996 18.6307V15.3242H15.8867L22.4996 20.9694Z" fill="#3F3F3F"/>
<path d="M22.5812 4.03125H2.41992L9.11347 9.67641H25.0006V6.36996C25.0006 4.99899 23.9119 4.03125 22.5812 4.03125Z" fill="#369933"/>
<path d="M15.9271 15.3209H24.9997V9.67578H9.07227L15.9271 15.3209Z" fill="#CFE5E2"/>
<path d="M22.5812 4.03125H2.41992L21.0893 9.67641H25.0006V6.36996C25.0006 4.99899 23.9119 4.03125 22.5812 4.03125Z" fill="#1C8417"/>
<path d="M24.9996 10.8048V9.67578H20.8867L24.9996 10.8048Z" fill="#BAD3CF"/>
<path d="M25 18.5872C25 20.0388 23.9113 20.9662 22.5806 20.9662H2.41935C1.08871 20.9662 0 19.9178 0 18.5469" fill="#232222"/>
<path d="M6.04839 4.03125H2.41935C1.08871 4.03125 0 4.99899 0 6.36996V9.59577V9.63609V15.4022V15.4425V18.6683C0 19.999 1.08871 20.9667 2.41935 20.9667H6.04839V4.03125Z" fill="#E73B36"/>
<path d="M6.04839 9.67704H0V9.63672V15.3625V15.3222H6.04839V9.67704Z" fill="#DB2C2C"/>
<path d="M0 15.3242V15.4452V18.671C0 20.0016 1.08871 20.9694 2.41935 20.9694H6.04839V15.3242H0Z" fill="#CC2525"/>
<path d="M0 18.5469C0 20.1598 1.08871 20.9662 2.41935 20.9662H6.04839V18.5469H0Z" fill="#B70808"/>
<path d="M6.04895 4.03125H2.41992L6.04895 7.09577V4.03125Z" fill="#CC2525"/>
<path d="M6.04895 4.03125H2.41992L6.04895 5.03931V4.03125Z" fill="#B70808"/>
</g>
<defs>
<clipPath id="clip0_11010_34223">
<rect width="25" height="25" fill="white"/>
</clipPath>
</defs>
</svg>
