<svg width="28" height="27" viewBox="0 0 28 27" fill="none" xmlns="http://www.w3.org/2000/svg">
<path d="M14.0005 25.6792C21.4233 25.6792 27.4405 20.0483 27.4405 13.1023C27.4405 6.15625 21.4233 0.525391 14.0005 0.525391C6.57784 0.525391 0.560547 6.15625 0.560547 13.1023C0.560547 20.0483 6.57784 25.6792 14.0005 25.6792Z" fill="#F9A74E"/>
<path d="M13.9994 23.0579C19.8757 23.0579 24.6394 18.6002 24.6394 13.1012C24.6394 7.6023 19.8757 3.14453 13.9994 3.14453C8.12306 3.14453 3.35938 7.6023 3.35938 13.1012C3.35938 18.6002 8.12306 23.0579 13.9994 23.0579Z" fill="#FFDE39"/>
<path d="M14 0C6.27465 0 0 5.87169 0 13.1009C0 20.3301 6.27465 26.2018 14 26.2018C21.7254 26.2018 28 20.3301 28 13.1009C28 5.87169 21.7254 0 14 0ZM14 1.04807C21.1201 1.04807 26.88 6.43811 26.88 13.1009C26.88 19.7637 21.1201 25.1538 14 25.1538C6.87994 25.1538 1.12 19.7637 1.12 13.1009C1.12 6.43811 6.87994 1.04807 14 1.04807ZM14 2.62018C7.82104 2.62018 2.8 7.31878 2.8 13.1009C2.8 15.4479 3.62641 17.6203 5.02141 19.3679C5.11032 19.4793 5.2429 19.5531 5.38997 19.5731C5.53703 19.593 5.68655 19.5575 5.80562 19.4743C5.9247 19.3911 6.00359 19.267 6.02492 19.1294C6.04625 18.9918 6.00828 18.8519 5.91937 18.7405C4.66338 17.1671 3.92 15.218 3.92 13.1009C3.92 7.8852 8.42634 3.66826 14 3.66826C19.5737 3.66826 24.08 7.8852 24.08 13.1009C24.08 18.3166 19.5737 22.5336 14 22.5336C12.3742 22.5336 10.8423 22.1748 9.48391 21.5367C9.41819 21.5057 9.3466 21.4872 9.27324 21.4822C9.19988 21.4771 9.12618 21.4857 9.05634 21.5073C8.9865 21.5289 8.92189 21.5632 8.86621 21.6082C8.81053 21.6532 8.76486 21.708 8.73182 21.7695C8.69878 21.831 8.67901 21.898 8.67364 21.9666C8.66827 22.0353 8.67741 22.1042 8.70053 22.1696C8.72364 22.2349 8.76029 22.2954 8.80838 22.3475C8.85647 22.3996 8.91505 22.4423 8.98078 22.4732C10.4907 23.1825 12.1977 23.5817 14 23.5817C20.179 23.5817 25.2 18.8831 25.2 13.1009C25.2 7.31878 20.179 2.62018 14 2.62018ZM13.9913 6.8176C13.8429 6.81976 13.7016 6.87692 13.5982 6.97651C13.4949 7.0761 13.438 7.20999 13.44 7.3488V8.3068C13.3678 8.3188 13.2954 8.32388 13.2234 8.34059H13.2223C11.9075 8.64606 10.9539 9.70221 10.9539 10.9311C10.9539 12.1557 11.9022 13.207 13.2103 13.5165C13.9888 13.7372 14.4541 13.6457 14.9964 13.8522C15.7436 14.2366 16.0807 14.9589 15.8659 15.6536C15.649 16.3549 14.8957 16.8726 14.0022 16.8726C13.1086 16.8726 12.3542 16.3549 12.1373 15.6536C12.1169 15.5874 12.0827 15.5257 12.0367 15.4719C11.9908 15.4181 11.934 15.3733 11.8695 15.3401C11.8051 15.3069 11.7343 15.2858 11.6611 15.2782C11.588 15.2706 11.514 15.2765 11.4433 15.2957C11.3726 15.3149 11.3066 15.3469 11.2492 15.3899C11.1917 15.4329 11.1439 15.4861 11.1084 15.5464C11.0729 15.6067 11.0504 15.673 11.0423 15.7414C11.0342 15.8099 11.0406 15.8791 11.0611 15.9453C11.3754 16.9614 12.3196 17.6854 13.44 17.8705V18.8531C13.4389 18.9225 13.4526 18.9914 13.4803 19.0559C13.508 19.1203 13.5491 19.179 13.6012 19.2284C13.6533 19.2779 13.7153 19.3172 13.7838 19.344C13.8523 19.3708 13.9258 19.3846 14 19.3846C14.0742 19.3846 14.1477 19.3708 14.2161 19.344C14.2846 19.3172 14.3467 19.2779 14.3988 19.2284C14.4509 19.179 14.492 19.1203 14.5196 19.0559C14.5473 18.9914 14.561 18.9225 14.56 18.8531V17.8715C15.6821 17.6877 16.6275 16.9627 16.9422 15.9453C17.308 14.7623 16.6966 13.5065 15.5093 12.9126C15.4947 12.9055 15.4797 12.899 15.4645 12.8932C14.6238 12.5587 14.0592 12.6678 13.5231 12.5124C13.513 12.5094 13.5027 12.5067 13.4924 12.5042C12.6325 12.3045 12.0739 11.6529 12.0739 10.9311C12.0739 10.209 12.6325 9.55777 13.4924 9.35798C14.3524 9.15842 15.2546 9.49227 15.6799 10.1307C15.7189 10.1891 15.7697 10.2398 15.8296 10.2799C15.8894 10.3199 15.9571 10.3485 16.0288 10.3641C16.1004 10.3796 16.1746 10.3818 16.2472 10.3705C16.3198 10.3592 16.3893 10.3346 16.4517 10.2982C16.5141 10.2618 16.5682 10.2142 16.611 10.1582C16.6538 10.1022 16.6843 10.0388 16.7009 9.97173C16.7175 9.90466 16.7198 9.8352 16.7077 9.7673C16.6956 9.6994 16.6694 9.63439 16.6304 9.57598C16.1682 8.88212 15.4038 8.43311 14.5599 8.29557V7.34883C14.561 7.27872 14.547 7.20912 14.5187 7.14417C14.4905 7.07923 14.4486 7.02024 14.3956 6.97071C14.3426 6.92117 14.2794 6.88211 14.21 6.85582C14.1405 6.82952 14.0662 6.8165 13.9913 6.8176Z" fill="#D28D55"/>
</svg>
