<svg width="12" height="8" viewBox="0 0 12 8" fill="none" xmlns="http://www.w3.org/2000/svg">
<path fill-rule="evenodd" clip-rule="evenodd" d="M10.5853 0.44164C10.3604 0.446619 10.1437 0.527303 9.9703 0.670644L3.8633 5.5747L1.8003 2.82274C1.72144 2.71769 1.62266 2.62913 1.5096 2.56225C1.39654 2.49536 1.27142 2.45138 1.14137 2.43285C1.01132 2.41433 0.878896 2.42168 0.751657 2.45434C0.624419 2.48699 0.504857 2.5443 0.3998 2.62316C0.294742 2.70202 0.206246 2.80087 0.139364 2.91393C0.0724812 3.02699 0.0285223 3.15205 0.00999705 3.28209C-0.00852823 3.41214 -0.00125715 3.54463 0.0313951 3.67186C0.0640474 3.7991 0.121441 3.91861 0.2003 4.02367L2.8823 7.59972C2.96274 7.70701 3.06394 7.79699 3.17987 7.86437C3.29581 7.93175 3.42411 7.97514 3.55715 7.99193C3.69019 8.00873 3.82525 7.99861 3.95429 7.96215C4.08333 7.92569 4.20372 7.86358 4.3083 7.77965L11.2223 2.22973C11.3879 2.10045 11.5086 1.9223 11.5672 1.72057C11.6258 1.51884 11.6194 1.30372 11.5489 1.10582C11.4784 0.907932 11.3474 0.737249 11.1744 0.618032C11.0015 0.498814 10.7953 0.437097 10.5853 0.44164Z" fill="url(#paint0_linear_11010_29375)"/>
<defs>
<linearGradient id="paint0_linear_11010_29375" x1="0.000300184" y1="4.22067" x2="11.6063" y2="4.22067" gradientUnits="userSpaceOnUse">
<stop offset="0.284375" stop-color="white"/>
<stop offset="1" stop-color="#00BDAB"/>
</linearGradient>
</defs>
</svg>
