<svg width="17" height="18" viewBox="0 0 17 18" fill="none" xmlns="http://www.w3.org/2000/svg">
<path d="M12.5683 17.3203L9.15532 14.0773C8.96946 13.9007 8.72287 13.8022 8.46649 13.8022H1.75004C1.55153 13.8006 1.35526 13.7567 1.17244 13.6732C0.989618 13.5896 0.823831 13.4679 0.684543 13.3152C0.545255 13.1624 0.435194 12.9815 0.360643 12.7828C0.286093 12.5841 0.248514 12.3714 0.250052 12.157V1.897C0.248404 1.68249 0.285895 1.46972 0.360386 1.27085C0.434877 1.07199 0.544908 0.890912 0.684196 0.737972C0.823484 0.585032 0.989302 0.463221 1.17218 0.379495C1.35506 0.295768 1.55142 0.251766 1.75004 0.25H14.75C14.9486 0.251766 15.1449 0.295768 15.3278 0.379495C15.5107 0.463221 15.6765 0.585032 15.8158 0.737972C15.9551 0.890912 16.0651 1.07199 16.1396 1.27085C16.2141 1.46972 16.2516 1.68249 16.2499 1.897V12.157C16.2515 12.3714 16.2139 12.5841 16.1394 12.7828C16.0648 12.9815 15.9547 13.1624 15.8155 13.3152C15.6762 13.4679 15.5104 13.5896 15.3276 13.6732C15.1447 13.7567 14.9485 13.8006 14.75 13.8022H13.5613C13.4227 13.8022 13.3217 13.9337 13.3241 14.0722V16.9369C13.3241 17.3203 13.1866 17.5291 12.9791 17.5291C12.8236 17.5144 12.678 17.4404 12.5683 17.3203ZM1.75004 11.157C1.75004 11.7093 2.19776 12.157 2.75004 12.157H9.02569C9.28205 12.157 9.52862 12.2555 9.71447 12.4321L9.84749 12.5584L11.6379 14.2597C11.7081 14.3265 11.8241 14.2767 11.8241 14.1798C11.8241 14.1711 11.8231 14.1625 11.8211 14.1541L11.6385 13.3917C11.488 12.763 11.9646 12.1588 12.6111 12.1588H13.75C14.3022 12.1588 14.75 11.7111 14.75 11.1588V2.8988C14.75 2.34652 14.3022 1.8988 13.75 1.8988H2.75004C2.19776 1.8988 1.75004 2.34652 1.75004 2.8988V11.157Z" fill="white" stroke="#202426" stroke-width="0.5"/>
<rect x="4.08203" y="3.49219" width="8.33328" height="0.900002" rx="0.450001" fill="#00CBB8"/>
<rect x="4.08203" y="5.29297" width="8.33328" height="0.900002" rx="0.450001" fill="#00CBB8"/>
<rect x="4.08203" y="7.09375" width="8.33328" height="0.900002" rx="0.450001" fill="#00CBB8"/>
<rect x="4.08203" y="8.89258" width="8.33328" height="0.900002" rx="0.450001" fill="#00CBB8"/>
</svg>
