<svg width="25" height="22" viewBox="0 0 25 22" fill="none" xmlns="http://www.w3.org/2000/svg">
<path d="M12.2245 21.5768H1.20408C1.14996 21.5768 1.09805 21.554 1.05977 21.5135C1.0215 21.4729 1 21.418 1 21.3606V1.90369C1 1.84635 1.0215 1.79136 1.05977 1.75082C1.09805 1.71028 1.14996 1.6875 1.20408 1.6875H12.2245C12.2786 1.6875 12.3305 1.71028 12.3688 1.75082C12.4071 1.79136 12.4286 1.84635 12.4286 1.90369V21.3606C12.4286 21.418 12.4071 21.4729 12.3688 21.5135C12.3305 21.554 12.2786 21.5768 12.2245 21.5768ZM1.40816 21.1444H12.0204V2.11988H1.40816V21.1444Z" fill="white" stroke="white" stroke-width="0.2"/>
<path d="M19.5715 21.5771H12.2246C12.1705 21.5771 12.1186 21.5543 12.0803 21.5137C12.042 21.4732 12.0205 21.4182 12.0205 21.3609V7.09246C12.0205 7.03512 12.042 6.98013 12.0803 6.93959C12.1186 6.89905 12.1705 6.87627 12.2246 6.87627H19.5715C19.6257 6.87627 19.6776 6.89905 19.7159 6.93959C19.7541 6.98013 19.7756 7.03512 19.7756 7.09246V21.3609C19.7756 21.4182 19.7541 21.4732 19.7159 21.5137C19.6776 21.5543 19.6257 21.5771 19.5715 21.5771ZM12.4287 21.1447H19.3675V7.30865H12.4287V21.1447ZM11.0001 2.12013H2.42869C2.37457 2.12013 2.32266 2.09735 2.28438 2.05681C2.24611 2.01627 2.22461 1.96128 2.22461 1.90394V0.606813C2.22461 0.549477 2.24611 0.494488 2.28438 0.453945C2.32266 0.413402 2.37457 0.390625 2.42869 0.390625H11.0001C11.0542 0.390625 11.1062 0.413402 11.1444 0.453945C11.1827 0.494488 11.2042 0.549477 11.2042 0.606813V1.90394C11.2042 1.96128 11.1827 2.01627 11.1444 2.05681C11.1062 2.09735 11.0542 2.12013 11.0001 2.12013ZM2.63277 1.68775H10.796V0.823001H2.63277V1.68775Z" fill="white" stroke="white" stroke-width="0.2"/>
<path d="M18.3463 7.30814H13.4483C13.3942 7.30814 13.3423 7.28536 13.304 7.24482C13.2658 7.20427 13.2443 7.14929 13.2443 7.09195V5.79482C13.2443 5.73748 13.2658 5.6825 13.304 5.64195C13.3423 5.60141 13.3942 5.57863 13.4483 5.57863H18.3463C18.4004 5.57863 18.4523 5.60141 18.4906 5.64195C18.5289 5.6825 18.5504 5.73748 18.5504 5.79482V7.09195C18.5504 7.14929 18.5289 7.20427 18.4906 7.24482C18.4523 7.28536 18.4004 7.30814 18.3463 7.30814ZM13.6524 6.87576H18.1422V6.01101H13.6524V6.87576ZM3.66099 4.71388H2.4365C2.38238 4.71388 2.33047 4.6911 2.2922 4.65056C2.25392 4.61002 2.23242 4.55503 2.23242 4.49769C2.23242 4.44036 2.25392 4.38537 2.2922 4.34482C2.33047 4.30428 2.38238 4.2815 2.4365 4.2815H3.45691V3.20056C3.45691 3.14323 3.47841 3.08824 3.51669 3.04769C3.55496 3.00715 3.60687 2.98438 3.66099 2.98438C3.71512 2.98438 3.76703 3.00715 3.8053 3.04769C3.84357 3.08824 3.86507 3.14323 3.86507 3.20056V4.49769C3.86507 4.55503 3.84357 4.61002 3.8053 4.65056C3.76703 4.6911 3.71512 4.71388 3.66099 4.71388ZM6.10997 4.71388H4.88548C4.83136 4.71388 4.77945 4.6911 4.74118 4.65056C4.7029 4.61002 4.6814 4.55503 4.6814 4.49769C4.6814 4.44036 4.7029 4.38537 4.74118 4.34482C4.77945 4.30428 4.83136 4.2815 4.88548 4.2815H5.90589V3.20056C5.90589 3.14323 5.92739 3.08824 5.96567 3.04769C6.00394 3.00715 6.05585 2.98438 6.10997 2.98438C6.1641 2.98438 6.21601 3.00715 6.25428 3.04769C6.29255 3.08824 6.31405 3.14323 6.31405 3.20056V4.49769C6.31405 4.55503 6.29255 4.61002 6.25428 4.65056C6.21601 4.6911 6.1641 4.71388 6.10997 4.71388ZM8.55895 4.71388H7.33446C7.28034 4.71388 7.22843 4.6911 7.19016 4.65056C7.15188 4.61002 7.13038 4.55503 7.13038 4.49769C7.13038 4.44036 7.15188 4.38537 7.19016 4.34482C7.22843 4.30428 7.28034 4.2815 7.33446 4.2815H8.35487V3.20056C8.35487 3.14323 8.37637 3.08824 8.41464 3.04769C8.45292 3.00715 8.50483 2.98438 8.55895 2.98438C8.61308 2.98438 8.66499 3.00715 8.70326 3.04769C8.74153 3.08824 8.76303 3.14323 8.76303 3.20056V4.49769C8.76303 4.55503 8.74153 4.61002 8.70326 4.65056C8.66499 4.6911 8.61308 4.71388 8.55895 4.71388ZM14.2732 9.47002H13.4569C13.4028 9.47002 13.3509 9.44724 13.3126 9.4067C13.2743 9.36616 13.2528 9.31117 13.2528 9.25383C13.2528 9.1965 13.2743 9.14151 13.3126 9.10096C13.3509 9.06042 13.4028 9.03764 13.4569 9.03764H14.0692V8.38908C14.0692 8.33174 14.0907 8.27675 14.1289 8.23621C14.1672 8.19567 14.2191 8.17289 14.2732 8.17289C14.3274 8.17289 14.3793 8.19567 14.4175 8.23621C14.4558 8.27675 14.4773 8.33174 14.4773 8.38908V9.25383C14.4773 9.31117 14.4558 9.36616 14.4175 9.4067C14.3793 9.44724 14.3274 9.47002 14.2732 9.47002ZM16.3141 9.47002H15.4977C15.4436 9.47002 15.3917 9.44724 15.3534 9.4067C15.3151 9.36616 15.2936 9.31117 15.2936 9.25383C15.2936 9.1965 15.3151 9.14151 15.3534 9.10096C15.3917 9.06042 15.4436 9.03764 15.4977 9.03764H16.11V8.38908C16.11 8.33174 16.1315 8.27675 16.1697 8.23621C16.208 8.19567 16.2599 8.17289 16.3141 8.17289C16.3682 8.17289 16.4201 8.19567 16.4584 8.23621C16.4966 8.27675 16.5181 8.33174 16.5181 8.38908V9.25383C16.5181 9.31117 16.4966 9.36616 16.4584 9.4067C16.4201 9.44724 16.3682 9.47002 16.3141 9.47002ZM18.3549 9.47002H17.5385C17.4844 9.47002 17.4325 9.44724 17.3942 9.4067C17.356 9.36616 17.3345 9.31117 17.3345 9.25383C17.3345 9.1965 17.356 9.14151 17.3942 9.10096C17.4325 9.06042 17.4844 9.03764 17.5385 9.03764H18.1508V8.38908C18.1508 8.33174 18.1723 8.27675 18.2106 8.23621C18.2488 8.19567 18.3007 8.17289 18.3549 8.17289C18.409 8.17289 18.4609 8.19567 18.4992 8.23621C18.5375 8.27675 18.559 8.33174 18.559 8.38908V9.25383C18.559 9.31117 18.5375 9.36616 18.4992 9.4067C18.4609 9.44724 18.409 9.47002 18.3549 9.47002ZM14.2732 11.6319H13.4569C13.4028 11.6319 13.3509 11.6091 13.3126 11.5686C13.2743 11.528 13.2528 11.4731 13.2528 11.4157C13.2528 11.3584 13.2743 11.3034 13.3126 11.2628C13.3509 11.2223 13.4028 11.1995 13.4569 11.1995H14.0692V10.551C14.0692 10.4936 14.0907 10.4386 14.1289 10.3981C14.1672 10.3575 14.2191 10.3348 14.2732 10.3348C14.3274 10.3348 14.3793 10.3575 14.4175 10.3981C14.4558 10.4386 14.4773 10.4936 14.4773 10.551V11.4157C14.4773 11.4731 14.4558 11.528 14.4175 11.5686C14.3793 11.6091 14.3274 11.6319 14.2732 11.6319ZM16.3141 11.6319H15.4977C15.4436 11.6319 15.3917 11.6091 15.3534 11.5686C15.3151 11.528 15.2936 11.4731 15.2936 11.4157C15.2936 11.3584 15.3151 11.3034 15.3534 11.2628C15.3917 11.2223 15.4436 11.1995 15.4977 11.1995H16.11V10.551C16.11 10.4936 16.1315 10.4386 16.1697 10.3981C16.208 10.3575 16.2599 10.3348 16.3141 10.3348C16.3682 10.3348 16.4201 10.3575 16.4584 10.3981C16.4966 10.4386 16.5181 10.4936 16.5181 10.551V11.4157C16.5181 11.4731 16.4966 11.528 16.4584 11.5686C16.4201 11.6091 16.3682 11.6319 16.3141 11.6319ZM18.3549 11.6319H17.5385C17.4844 11.6319 17.4325 11.6091 17.3942 11.5686C17.356 11.528 17.3345 11.4731 17.3345 11.4157C17.3345 11.3584 17.356 11.3034 17.3942 11.2628C17.4325 11.2223 17.4844 11.1995 17.5385 11.1995H18.1508V10.551C18.1508 10.4936 18.1723 10.4386 18.2106 10.3981C18.2488 10.3575 18.3007 10.3348 18.3549 10.3348C18.409 10.3348 18.4609 10.3575 18.4992 10.3981C18.5375 10.4386 18.559 10.4936 18.559 10.551V11.4157C18.559 11.4731 18.5375 11.528 18.4992 11.5686C18.4609 11.6091 18.409 11.6319 18.3549 11.6319ZM14.2732 13.7938H13.4569C13.4028 13.7938 13.3509 13.771 13.3126 13.7305C13.2743 13.6899 13.2528 13.6349 13.2528 13.5776C13.2528 13.5203 13.2743 13.4653 13.3126 13.4247C13.3509 13.3842 13.4028 13.3614 13.4569 13.3614H14.0692V12.7128C14.0692 12.6555 14.0907 12.6005 14.1289 12.56C14.1672 12.5194 14.2191 12.4967 14.2732 12.4967C14.3274 12.4967 14.3793 12.5194 14.4175 12.56C14.4558 12.6005 14.4773 12.6555 14.4773 12.7128V13.5776C14.4773 13.6349 14.4558 13.6899 14.4175 13.7305C14.3793 13.771 14.3274 13.7938 14.2732 13.7938ZM16.3141 13.7938H15.4977C15.4436 13.7938 15.3917 13.771 15.3534 13.7305C15.3151 13.6899 15.2936 13.6349 15.2936 13.5776C15.2936 13.5203 15.3151 13.4653 15.3534 13.4247C15.3917 13.3842 15.4436 13.3614 15.4977 13.3614H16.11V12.7128C16.11 12.6555 16.1315 12.6005 16.1697 12.56C16.208 12.5194 16.2599 12.4967 16.3141 12.4967C16.3682 12.4967 16.4201 12.5194 16.4584 12.56C16.4966 12.6005 16.5181 12.6555 16.5181 12.7128V13.5776C16.5181 13.6349 16.4966 13.6899 16.4584 13.7305C16.4201 13.771 16.3682 13.7938 16.3141 13.7938ZM18.3549 13.7938H17.5385C17.4844 13.7938 17.4325 13.771 17.3942 13.7305C17.356 13.6899 17.3345 13.6349 17.3345 13.5776C17.3345 13.5203 17.356 13.4653 17.3942 13.4247C17.4325 13.3842 17.4844 13.3614 17.5385 13.3614H18.1508V12.7128C18.1508 12.6555 18.1723 12.6005 18.2106 12.56C18.2488 12.5194 18.3007 12.4967 18.3549 12.4967C18.409 12.4967 18.4609 12.5194 18.4992 12.56C18.5375 12.6005 18.559 12.6555 18.559 12.7128V13.5776C18.559 13.6349 18.5375 13.6899 18.4992 13.7305C18.4609 13.771 18.409 13.7938 18.3549 13.7938ZM14.2732 15.9557H13.4569C13.4028 15.9557 13.3509 15.9329 13.3126 15.8923C13.2743 15.8518 13.2528 15.7968 13.2528 15.7395C13.2528 15.6821 13.2743 15.6272 13.3126 15.5866C13.3509 15.5461 13.4028 15.5233 13.4569 15.5233H14.0692V14.8747C14.0692 14.8174 14.0907 14.7624 14.1289 14.7219C14.1672 14.6813 14.2191 14.6585 14.2732 14.6585C14.3274 14.6585 14.3793 14.6813 14.4175 14.7219C14.4558 14.7624 14.4773 14.8174 14.4773 14.8747V15.7395C14.4773 15.7968 14.4558 15.8518 14.4175 15.8923C14.3793 15.9329 14.3274 15.9557 14.2732 15.9557ZM16.3141 15.9557H15.4977C15.4436 15.9557 15.3917 15.9329 15.3534 15.8923C15.3151 15.8518 15.2936 15.7968 15.2936 15.7395C15.2936 15.6821 15.3151 15.6272 15.3534 15.5866C15.3917 15.5461 15.4436 15.5233 15.4977 15.5233H16.11V14.8747C16.11 14.8174 16.1315 14.7624 16.1697 14.7219C16.208 14.6813 16.2599 14.6585 16.3141 14.6585C16.3682 14.6585 16.4201 14.6813 16.4584 14.7219C16.4966 14.7624 16.5181 14.8174 16.5181 14.8747V15.7395C16.5181 15.7968 16.4966 15.8518 16.4584 15.8923C16.4201 15.9329 16.3682 15.9557 16.3141 15.9557ZM18.3549 15.9557H17.5385C17.4844 15.9557 17.4325 15.9329 17.3942 15.8923C17.356 15.8518 17.3345 15.7968 17.3345 15.7395C17.3345 15.6821 17.356 15.6272 17.3942 15.5866C17.4325 15.5461 17.4844 15.5233 17.5385 15.5233H18.1508V14.8747C18.1508 14.8174 18.1723 14.7624 18.2106 14.7219C18.2488 14.6813 18.3007 14.6585 18.3549 14.6585C18.409 14.6585 18.4609 14.6813 18.4992 14.7219C18.5375 14.7624 18.559 14.8174 18.559 14.8747V15.7395C18.559 15.7968 18.5375 15.8518 18.4992 15.8923C18.4609 15.9329 18.409 15.9557 18.3549 15.9557ZM14.2732 18.1175H13.4569C13.4028 18.1175 13.3509 18.0948 13.3126 18.0542C13.2743 18.0137 13.2528 17.9587 13.2528 17.9014C13.2528 17.844 13.2743 17.789 13.3126 17.7485C13.3509 17.7079 13.4028 17.6852 13.4569 17.6852H14.0692V17.0366C14.0692 16.9793 14.0907 16.9243 14.1289 16.8837C14.1672 16.8432 14.2191 16.8204 14.2732 16.8204C14.3274 16.8204 14.3793 16.8432 14.4175 16.8837C14.4558 16.9243 14.4773 16.9793 14.4773 17.0366V17.9014C14.4773 17.9587 14.4558 18.0137 14.4175 18.0542C14.3793 18.0948 14.3274 18.1175 14.2732 18.1175ZM16.3141 18.1175H15.4977C15.4436 18.1175 15.3917 18.0948 15.3534 18.0542C15.3151 18.0137 15.2936 17.9587 15.2936 17.9014C15.2936 17.844 15.3151 17.789 15.3534 17.7485C15.3917 17.7079 15.4436 17.6852 15.4977 17.6852H16.11V17.0366C16.11 16.9793 16.1315 16.9243 16.1697 16.8837C16.208 16.8432 16.2599 16.8204 16.3141 16.8204C16.3682 16.8204 16.4201 16.8432 16.4584 16.8837C16.4966 16.9243 16.5181 16.9793 16.5181 17.0366V17.9014C16.5181 17.9587 16.4966 18.0137 16.4584 18.0542C16.4201 18.0948 16.3682 18.1175 16.3141 18.1175ZM18.3549 18.1175H17.5385C17.4844 18.1175 17.4325 18.0948 17.3942 18.0542C17.356 18.0137 17.3345 17.9587 17.3345 17.9014C17.3345 17.844 17.356 17.789 17.3942 17.7485C17.4325 17.7079 17.4844 17.6852 17.5385 17.6852H18.1508V17.0366C18.1508 16.9793 18.1723 16.9243 18.2106 16.8837C18.2488 16.8432 18.3007 16.8204 18.3549 16.8204C18.409 16.8204 18.4609 16.8432 18.4992 16.8837C18.5375 16.9243 18.559 16.9793 18.559 17.0366V17.9014C18.559 17.9587 18.5375 18.0137 18.4992 18.0542C18.4609 18.0948 18.409 18.1175 18.3549 18.1175ZM14.2732 20.2794H13.4569C13.4028 20.2794 13.3509 20.2567 13.3126 20.2161C13.2743 20.1756 13.2528 20.1206 13.2528 20.0632C13.2528 20.0059 13.2743 19.9509 13.3126 19.9104C13.3509 19.8698 13.4028 19.8471 13.4569 19.8471H14.0692V19.1985C14.0692 19.1412 14.0907 19.0862 14.1289 19.0456C14.1672 19.0051 14.2191 18.9823 14.2732 18.9823C14.3274 18.9823 14.3793 19.0051 14.4175 19.0456C14.4558 19.0862 14.4773 19.1412 14.4773 19.1985V20.0632C14.4773 20.1206 14.4558 20.1756 14.4175 20.2161C14.3793 20.2567 14.3274 20.2794 14.2732 20.2794ZM16.3141 20.2794H15.4977C15.4436 20.2794 15.3917 20.2567 15.3534 20.2161C15.3151 20.1756 15.2936 20.1206 15.2936 20.0632C15.2936 20.0059 15.3151 19.9509 15.3534 19.9104C15.3917 19.8698 15.4436 19.8471 15.4977 19.8471H16.11V19.1985C16.11 19.1412 16.1315 19.0862 16.1697 19.0456C16.208 19.0051 16.2599 18.9823 16.3141 18.9823C16.3682 18.9823 16.4201 19.0051 16.4584 19.0456C16.4966 19.0862 16.5181 19.1412 16.5181 19.1985V20.0632C16.5181 20.1206 16.4966 20.1756 16.4584 20.2161C16.4201 20.2567 16.3682 20.2794 16.3141 20.2794ZM18.3549 20.2794H17.5385C17.4844 20.2794 17.4325 20.2567 17.3942 20.2161C17.356 20.1756 17.3345 20.1206 17.3345 20.0632C17.3345 20.0059 17.356 19.9509 17.3942 19.9104C17.4325 19.8698 17.4844 19.8471 17.5385 19.8471H18.1508V19.1985C18.1508 19.1412 18.1723 19.0862 18.2106 19.0456C18.2488 19.0051 18.3007 18.9823 18.3549 18.9823C18.409 18.9823 18.4609 19.0051 18.4992 19.0456C18.5375 19.0862 18.559 19.1412 18.559 19.1985V20.0632C18.559 20.1206 18.5375 20.1756 18.4992 20.2161C18.4609 20.2567 18.409 20.2794 18.3549 20.2794ZM11.0079 4.71388H9.78344C9.72932 4.71388 9.67741 4.6911 9.63913 4.65056C9.60086 4.61002 9.57936 4.55503 9.57936 4.49769C9.57936 4.44036 9.60086 4.38537 9.63913 4.34482C9.67741 4.30428 9.72932 4.2815 9.78344 4.2815H10.8039V3.20056C10.8039 3.14323 10.8254 3.08824 10.8636 3.04769C10.9019 3.00715 10.9538 2.98438 11.0079 2.98438C11.0621 2.98438 11.114 3.00715 11.1522 3.04769C11.1905 3.08824 11.212 3.14323 11.212 3.20056V4.49769C11.212 4.55503 11.1905 4.61002 11.1522 4.65056C11.114 4.6911 11.0621 4.71388 11.0079 4.71388ZM3.66099 7.30814H2.4365C2.38238 7.30814 2.33047 7.28536 2.2922 7.24482C2.25392 7.20427 2.23242 7.14929 2.23242 7.09195C2.23242 7.03461 2.25392 6.97962 2.2922 6.93908C2.33047 6.89854 2.38238 6.87576 2.4365 6.87576H3.45691V5.79482C3.45691 5.73748 3.47841 5.6825 3.51669 5.64195C3.55496 5.60141 3.60687 5.57863 3.66099 5.57863C3.71512 5.57863 3.76703 5.60141 3.8053 5.64195C3.84357 5.6825 3.86507 5.73748 3.86507 5.79482V7.09195C3.86507 7.14929 3.84357 7.20427 3.8053 7.24482C3.76703 7.28536 3.71512 7.30814 3.66099 7.30814ZM6.10997 7.30814H4.88548C4.83136 7.30814 4.77945 7.28536 4.74118 7.24482C4.7029 7.20427 4.6814 7.14929 4.6814 7.09195C4.6814 7.03461 4.7029 6.97962 4.74118 6.93908C4.77945 6.89854 4.83136 6.87576 4.88548 6.87576H5.90589V5.79482C5.90589 5.73748 5.92739 5.6825 5.96567 5.64195C6.00394 5.60141 6.05585 5.57863 6.10997 5.57863C6.1641 5.57863 6.21601 5.60141 6.25428 5.64195C6.29255 5.6825 6.31405 5.73748 6.31405 5.79482V7.09195C6.31405 7.14929 6.29255 7.20427 6.25428 7.24482C6.21601 7.28536 6.1641 7.30814 6.10997 7.30814ZM8.55895 7.30814H7.33446C7.28034 7.30814 7.22843 7.28536 7.19016 7.24482C7.15188 7.20427 7.13038 7.14929 7.13038 7.09195C7.13038 7.03461 7.15188 6.97962 7.19016 6.93908C7.22843 6.89854 7.28034 6.87576 7.33446 6.87576H8.35487V5.79482C8.35487 5.73748 8.37637 5.6825 8.41464 5.64195C8.45292 5.60141 8.50483 5.57863 8.55895 5.57863C8.61308 5.57863 8.66499 5.60141 8.70326 5.64195C8.74153 5.6825 8.76303 5.73748 8.76303 5.79482V7.09195C8.76303 7.14929 8.74153 7.20427 8.70326 7.24482C8.66499 7.28536 8.61308 7.30814 8.55895 7.30814ZM11.0079 7.30814H9.78344C9.72932 7.30814 9.67741 7.28536 9.63913 7.24482C9.60086 7.20427 9.57936 7.14929 9.57936 7.09195C9.57936 7.03461 9.60086 6.97962 9.63913 6.93908C9.67741 6.89854 9.72932 6.87576 9.78344 6.87576H10.8039V5.79482C10.8039 5.73748 10.8254 5.6825 10.8636 5.64195C10.9019 5.60141 10.9538 5.57863 11.0079 5.57863C11.0621 5.57863 11.114 5.60141 11.1522 5.64195C11.1905 5.6825 11.212 5.73748 11.212 5.79482V7.09195C11.212 7.14929 11.1905 7.20427 11.1522 7.24482C11.114 7.28536 11.0621 7.30814 11.0079 7.30814ZM3.66099 9.9024H2.4365C2.38238 9.9024 2.33047 9.87962 2.2922 9.83908C2.25392 9.79853 2.23242 9.74354 2.23242 9.68621C2.23242 9.62887 2.25392 9.57388 2.2922 9.53334C2.33047 9.4928 2.38238 9.47002 2.4365 9.47002H3.45691V8.38908C3.45691 8.33174 3.47841 8.27675 3.51669 8.23621C3.55496 8.19567 3.60687 8.17289 3.66099 8.17289C3.71512 8.17289 3.76703 8.19567 3.8053 8.23621C3.84357 8.27675 3.86507 8.33174 3.86507 8.38908V9.68621C3.86507 9.74354 3.84357 9.79853 3.8053 9.83908C3.76703 9.87962 3.71512 9.9024 3.66099 9.9024ZM6.10997 9.9024H4.88548C4.83136 9.9024 4.77945 9.87962 4.74118 9.83908C4.7029 9.79853 4.6814 9.74354 4.6814 9.68621C4.6814 9.62887 4.7029 9.57388 4.74118 9.53334C4.77945 9.4928 4.83136 9.47002 4.88548 9.47002H5.90589V8.38908C5.90589 8.33174 5.92739 8.27675 5.96567 8.23621C6.00394 8.19567 6.05585 8.17289 6.10997 8.17289C6.1641 8.17289 6.21601 8.19567 6.25428 8.23621C6.29255 8.27675 6.31405 8.33174 6.31405 8.38908V9.68621C6.31405 9.74354 6.29255 9.79853 6.25428 9.83908C6.21601 9.87962 6.1641 9.9024 6.10997 9.9024ZM8.55895 9.9024H7.33446C7.28034 9.9024 7.22843 9.87962 7.19016 9.83908C7.15188 9.79853 7.13038 9.74354 7.13038 9.68621C7.13038 9.62887 7.15188 9.57388 7.19016 9.53334C7.22843 9.4928 7.28034 9.47002 7.33446 9.47002H8.35487V8.38908C8.35487 8.33174 8.37637 8.27675 8.41464 8.23621C8.45292 8.19567 8.50483 8.17289 8.55895 8.17289C8.61308 8.17289 8.66499 8.19567 8.70326 8.23621C8.74153 8.27675 8.76303 8.33174 8.76303 8.38908V9.68621C8.76303 9.74354 8.74153 9.79853 8.70326 9.83908C8.66499 9.87962 8.61308 9.9024 8.55895 9.9024ZM11.0079 9.9024H9.78344C9.72932 9.9024 9.67741 9.87962 9.63913 9.83908C9.60086 9.79853 9.57936 9.74354 9.57936 9.68621C9.57936 9.62887 9.60086 9.57388 9.63913 9.53334C9.67741 9.4928 9.72932 9.47002 9.78344 9.47002H10.8039V8.38908C10.8039 8.33174 10.8254 8.27675 10.8636 8.23621C10.9019 8.19567 10.9538 8.17289 11.0079 8.17289C11.0621 8.17289 11.114 8.19567 11.1522 8.23621C11.1905 8.27675 11.212 8.33174 11.212 8.38908V9.68621C11.212 9.74354 11.1905 9.79853 11.1522 9.83908C11.114 9.87962 11.0621 9.9024 11.0079 9.9024ZM3.66099 12.4967H2.4365C2.38238 12.4967 2.33047 12.4739 2.2922 12.4333C2.25392 12.3928 2.23242 12.3378 2.23242 12.2805C2.23242 12.2231 2.25392 12.1681 2.2922 12.1276C2.33047 12.0871 2.38238 12.0643 2.4365 12.0643H3.45691V10.9833C3.45691 10.926 3.47841 10.871 3.51669 10.8305C3.55496 10.7899 3.60687 10.7671 3.66099 10.7671C3.71512 10.7671 3.76703 10.7899 3.8053 10.8305C3.84357 10.871 3.86507 10.926 3.86507 10.9833V12.2805C3.86507 12.3378 3.84357 12.3928 3.8053 12.4333C3.76703 12.4739 3.71512 12.4967 3.66099 12.4967ZM6.10997 12.4967H4.88548C4.83136 12.4967 4.77945 12.4739 4.74118 12.4333C4.7029 12.3928 4.6814 12.3378 4.6814 12.2805C4.6814 12.2231 4.7029 12.1681 4.74118 12.1276C4.77945 12.0871 4.83136 12.0643 4.88548 12.0643H5.90589V10.9833C5.90589 10.926 5.92739 10.871 5.96567 10.8305C6.00394 10.7899 6.05585 10.7671 6.10997 10.7671C6.1641 10.7671 6.21601 10.7899 6.25428 10.8305C6.29255 10.871 6.31405 10.926 6.31405 10.9833V12.2805C6.31405 12.3378 6.29255 12.3928 6.25428 12.4333C6.21601 12.4739 6.1641 12.4967 6.10997 12.4967ZM8.55895 12.4967H7.33446C7.28034 12.4967 7.22843 12.4739 7.19016 12.4333C7.15188 12.3928 7.13038 12.3378 7.13038 12.2805C7.13038 12.2231 7.15188 12.1681 7.19016 12.1276C7.22843 12.0871 7.28034 12.0643 7.33446 12.0643H8.35487V10.9833C8.35487 10.926 8.37637 10.871 8.41464 10.8305C8.45292 10.7899 8.50483 10.7671 8.55895 10.7671C8.61308 10.7671 8.66499 10.7899 8.70326 10.8305C8.74153 10.871 8.76303 10.926 8.76303 10.9833V12.2805C8.76303 12.3378 8.74153 12.3928 8.70326 12.4333C8.66499 12.4739 8.61308 12.4967 8.55895 12.4967ZM11.0079 12.4967H9.78344C9.72932 12.4967 9.67741 12.4739 9.63913 12.4333C9.60086 12.3928 9.57936 12.3378 9.57936 12.2805C9.57936 12.2231 9.60086 12.1681 9.63913 12.1276C9.67741 12.0871 9.72932 12.0643 9.78344 12.0643H10.8039V10.9833C10.8039 10.926 10.8254 10.871 10.8636 10.8305C10.9019 10.7899 10.9538 10.7671 11.0079 10.7671C11.0621 10.7671 11.114 10.7899 11.1522 10.8305C11.1905 10.871 11.212 10.926 11.212 10.9833V12.2805C11.212 12.3378 11.1905 12.3928 11.1522 12.4333C11.114 12.4739 11.0621 12.4967 11.0079 12.4967ZM3.66099 15.0909H2.4365C2.38238 15.0909 2.33047 15.0681 2.2922 15.0276C2.25392 14.9871 2.23242 14.9321 2.23242 14.8747C2.23242 14.8174 2.25392 14.7624 2.2922 14.7219C2.33047 14.6813 2.38238 14.6585 2.4365 14.6585H3.45691V13.5776C3.45691 13.5203 3.47841 13.4653 3.51669 13.4247C3.55496 13.3842 3.60687 13.3614 3.66099 13.3614C3.71512 13.3614 3.76703 13.3842 3.8053 13.4247C3.84357 13.4653 3.86507 13.5203 3.86507 13.5776V14.8747C3.86507 14.9321 3.84357 14.9871 3.8053 15.0276C3.76703 15.0681 3.71512 15.0909 3.66099 15.0909ZM6.10997 15.0909H4.88548C4.83136 15.0909 4.77945 15.0681 4.74118 15.0276C4.7029 14.9871 4.6814 14.9321 4.6814 14.8747C4.6814 14.8174 4.7029 14.7624 4.74118 14.7219C4.77945 14.6813 4.83136 14.6585 4.88548 14.6585H5.90589V13.5776C5.90589 13.5203 5.92739 13.4653 5.96567 13.4247C6.00394 13.3842 6.05585 13.3614 6.10997 13.3614C6.1641 13.3614 6.21601 13.3842 6.25428 13.4247C6.29255 13.4653 6.31405 13.5203 6.31405 13.5776V14.8747C6.31405 14.9321 6.29255 14.9871 6.25428 15.0276C6.21601 15.0681 6.1641 15.0909 6.10997 15.0909ZM8.55895 15.0909H7.33446C7.28034 15.0909 7.22843 15.0681 7.19016 15.0276C7.15188 14.9871 7.13038 14.9321 7.13038 14.8747C7.13038 14.8174 7.15188 14.7624 7.19016 14.7219C7.22843 14.6813 7.28034 14.6585 7.33446 14.6585H8.35487V13.5776C8.35487 13.5203 8.37637 13.4653 8.41464 13.4247C8.45292 13.3842 8.50483 13.3614 8.55895 13.3614C8.61308 13.3614 8.66499 13.3842 8.70326 13.4247C8.74153 13.4653 8.76303 13.5203 8.76303 13.5776V14.8747C8.76303 14.9321 8.74153 14.9871 8.70326 15.0276C8.66499 15.0681 8.61308 15.0909 8.55895 15.0909ZM11.0079 15.0909H9.78344C9.72932 15.0909 9.67741 15.0681 9.63913 15.0276C9.60086 14.9871 9.57936 14.9321 9.57936 14.8747C9.57936 14.8174 9.60086 14.7624 9.63913 14.7219C9.67741 14.6813 9.72932 14.6585 9.78344 14.6585H10.8039V13.5776C10.8039 13.5203 10.8254 13.4653 10.8636 13.4247C10.9019 13.3842 10.9538 13.3614 11.0079 13.3614C11.0621 13.3614 11.114 13.3842 11.1522 13.4247C11.1905 13.4653 11.212 13.5203 11.212 13.5776V14.8747C11.212 14.9321 11.1905 14.9871 11.1522 15.0276C11.114 15.0681 11.0621 15.0909 11.0079 15.0909ZM3.66099 17.6852H2.4365C2.38238 17.6852 2.33047 17.6624 2.2922 17.6219C2.25392 17.5813 2.23242 17.5263 2.23242 17.469C2.23242 17.4116 2.25392 17.3567 2.2922 17.3161C2.33047 17.2756 2.38238 17.2528 2.4365 17.2528H3.45691V16.1719C3.45691 16.1145 3.47841 16.0595 3.51669 16.019C3.55496 15.9784 3.60687 15.9557 3.66099 15.9557C3.71512 15.9557 3.76703 15.9784 3.8053 16.019C3.84357 16.0595 3.86507 16.1145 3.86507 16.1719V17.469C3.86507 17.5263 3.84357 17.5813 3.8053 17.6219C3.76703 17.6624 3.71512 17.6852 3.66099 17.6852ZM11.0079 17.7734H9.78344C9.72932 17.7734 9.67741 17.7506 9.63913 17.7101C9.60086 17.6695 9.57936 17.6145 9.57936 17.5572C9.57936 17.4999 9.60086 17.4449 9.63913 17.4043C9.67741 17.3638 9.72932 17.341 9.78344 17.341H10.8039V16.2601C10.8039 16.2027 10.8254 16.1477 10.8636 16.1072C10.9019 16.0666 10.9538 16.0439 11.0079 16.0439C11.0621 16.0439 11.114 16.0666 11.1522 16.1072C11.1905 16.1477 11.212 16.2027 11.212 16.2601V17.5572C11.212 17.6145 11.1905 17.6695 11.1522 17.7101C11.114 17.7506 11.0621 17.7734 11.0079 17.7734ZM3.66099 20.2794H2.4365C2.38238 20.2794 2.33047 20.2567 2.2922 20.2161C2.25392 20.1756 2.23242 20.1206 2.23242 20.0632C2.23242 20.0059 2.25392 19.9509 2.2922 19.9104C2.33047 19.8698 2.38238 19.8471 2.4365 19.8471H3.45691V18.7661C3.45691 18.7088 3.47841 18.6538 3.51669 18.6132C3.55496 18.5727 3.60687 18.5499 3.66099 18.5499C3.71512 18.5499 3.76703 18.5727 3.8053 18.6132C3.84357 18.6538 3.86507 18.7088 3.86507 18.7661V20.0632C3.86507 20.1206 3.84357 20.1756 3.8053 20.2161C3.76703 20.2567 3.71512 20.2794 3.66099 20.2794ZM11.0079 20.3676H9.78344C9.72932 20.3676 9.67741 20.3449 9.63913 20.3043C9.60086 20.2638 9.57936 20.2088 9.57936 20.1514C9.57936 20.0941 9.60086 20.0391 9.63913 19.9986C9.67741 19.958 9.72932 19.9353 9.78344 19.9353H10.8039V18.8543C10.8039 18.797 10.8254 18.742 10.8636 18.7014C10.9019 18.6609 10.9538 18.6381 11.0079 18.6381C11.0621 18.6381 11.114 18.6609 11.1522 18.7014C11.1905 18.742 11.212 18.797 11.212 18.8543V20.1514C11.212 20.2088 11.1905 20.2638 11.1522 20.3043C11.114 20.3449 11.0621 20.3676 11.0079 20.3676ZM8.55038 21.5766H4.87691C4.82279 21.5766 4.77088 21.5538 4.7326 21.5132C4.69433 21.4727 4.67283 21.4177 4.67283 21.3604V16.1719C4.67283 16.1145 4.69433 16.0595 4.7326 16.019C4.77088 15.9784 4.82279 15.9557 4.87691 15.9557H8.55038C8.60451 15.9557 8.65642 15.9784 8.69469 16.019C8.73296 16.0595 8.75446 16.1145 8.75446 16.1719V21.3604C8.75446 21.4177 8.73296 21.4727 8.69469 21.5132C8.65642 21.5538 8.60451 21.5766 8.55038 21.5766ZM5.08099 21.1442H8.3463V16.388H5.08099V21.1442Z" fill="white" stroke="white" stroke-width="0.2"/>
<path d="M6.72166 21.5779C6.66753 21.5779 6.61562 21.5551 6.57735 21.5146C6.53908 21.4741 6.51758 21.4191 6.51758 21.3617V16.1732C6.51758 16.1159 6.53908 16.0609 6.57735 16.0204C6.61562 15.9798 6.66753 15.957 6.72166 15.957C6.77579 15.957 6.82769 15.9798 6.86597 16.0204C6.90424 16.0609 6.92574 16.1159 6.92574 16.1732V21.3617C6.92574 21.4191 6.90424 21.4741 6.86597 21.5146C6.82769 21.5551 6.77579 21.5779 6.72166 21.5779Z" fill="white" stroke="white" stroke-width="0.2"/>
<path d="M19.7536 20.1487C19.5971 20.0566 19.4029 20.0566 19.2464 20.1487L17.0506 21.4412C16.6804 21.659 16.2259 21.3395 16.3056 20.9174L16.8102 18.2467C16.8414 18.0818 16.7878 17.9123 16.6675 17.7954L14.7465 15.9276C14.4458 15.6352 14.617 15.1248 15.0331 15.0729L17.5864 14.7545C17.7612 14.7327 17.9116 14.6205 17.9824 14.4592L19.0421 12.0437C19.2171 11.6448 19.7829 11.6448 19.9579 12.0437L21.0176 14.4592C21.0884 14.6205 21.2388 14.7327 21.4136 14.7545L23.9669 15.0729C24.383 15.1248 24.5542 15.6352 24.2535 15.9276L22.3325 17.7954C22.2122 17.9123 22.1586 18.0818 22.1898 18.2467L22.6944 20.9174C22.7741 21.3395 22.3196 21.659 21.9494 21.4412L19.7536 20.1487Z" fill="white"/>
</svg>
