<svg width="17" height="22" viewBox="0 0 17 22" fill="none" xmlns="http://www.w3.org/2000/svg">
<path d="M15.1385 7.75115L14.8025 17.9886C14.7739 18.8654 14.4069 19.6964 13.7795 20.3053C13.1521 20.9142 12.3136 21.2531 11.442 21.25H5.05714C4.18613 21.2531 3.34814 20.9147 2.72082 20.3065C2.09349 19.6983 1.72616 18.8681 1.69668 17.992L1.36063 7.75115C1.35328 7.52688 1.43474 7.30887 1.58709 7.14506C1.73945 6.98125 1.95021 6.88506 2.17302 6.87766C2.39584 6.87026 2.61244 6.95225 2.7752 7.1056C2.93795 7.25894 3.03351 7.47108 3.04086 7.69534L3.37691 17.9353C3.39364 18.3724 3.57803 18.7861 3.89134 19.0893C4.20465 19.3925 4.6225 19.5617 5.05714 19.5614H11.442C11.8772 19.5616 12.2956 19.392 12.609 19.088C12.9224 18.7841 13.1064 18.3697 13.1222 17.9319L13.4583 7.69534C13.4656 7.47108 13.5612 7.25894 13.724 7.1056C13.8867 6.95225 14.1033 6.87026 14.3261 6.87766C14.5489 6.88506 14.7597 6.98125 14.9121 7.14506C15.0644 7.30887 15.1459 7.52688 15.1385 7.75115ZM16.25 4.3443C16.25 4.56857 16.1615 4.78364 16.0039 4.94222C15.8464 5.1008 15.6327 5.18988 15.4099 5.18988H1.09012C0.867303 5.18988 0.653616 5.1008 0.496064 4.94222C0.338512 4.78364 0.25 4.56857 0.25 4.3443C0.25 4.12004 0.338512 3.90497 0.496064 3.74639C0.653616 3.58781 0.867303 3.49873 1.09012 3.49873H3.69447C3.96066 3.49945 4.2176 3.40046 4.41528 3.22103C4.61296 3.04161 4.73724 2.79457 4.76394 2.528C4.82594 1.90268 5.11701 1.32299 5.58044 0.901872C6.04388 0.480754 6.64648 0.248374 7.27085 0.250009H9.22831C9.85268 0.248374 10.4553 0.480754 10.9187 0.901872C11.3822 1.32299 11.6732 1.90268 11.7352 2.528C11.7619 2.79457 11.8862 3.04161 12.0839 3.22103C12.2816 3.40046 12.5385 3.49945 12.8047 3.49873H15.409C15.6319 3.49873 15.8455 3.58781 16.0031 3.74639C16.1606 3.90497 16.25 4.12004 16.25 4.3443ZM6.22238 3.49873H10.2785C10.1681 3.24483 10.0959 2.97581 10.0642 2.7005C10.0434 2.49207 9.94648 2.29884 9.7922 2.15824C9.63792 2.01764 9.43728 1.93968 9.22915 1.93948H7.27169C7.06356 1.93968 6.86292 2.01764 6.70864 2.15824C6.55436 2.29884 6.45742 2.49207 6.43661 2.7005C6.40471 2.97585 6.33307 3.24488 6.22238 3.49873ZM7.06838 16.3101V9.10999C7.06838 8.88573 6.97987 8.67065 6.82231 8.51208C6.66476 8.3535 6.45107 8.26441 6.22826 8.26441C6.00545 8.26441 5.79176 8.3535 5.63421 8.51208C5.47666 8.67065 5.38815 8.88573 5.38815 9.10999V16.3135C5.38815 16.5377 5.47666 16.7528 5.63421 16.9114C5.79176 17.07 6.00545 17.1591 6.22826 17.1591C6.45107 17.1591 6.66476 17.07 6.82231 16.9114C6.97987 16.7528 7.06838 16.5377 7.06838 16.3135V16.3101ZM11.1127 16.3101V9.10999C11.1127 8.88573 11.0242 8.67065 10.8666 8.51208C10.7091 8.3535 10.4954 8.26441 10.2726 8.26441C10.0498 8.26441 9.83608 8.3535 9.67853 8.51208C9.52097 8.67065 9.43246 8.88573 9.43246 9.10999V16.3135C9.43246 16.5377 9.52097 16.7528 9.67853 16.9114C9.83608 17.07 10.0498 17.1591 10.2726 17.1591C10.4954 17.1591 10.7091 17.07 10.8666 16.9114C11.0242 16.7528 11.1127 16.5377 11.1127 16.3135V16.3101Z" fill="#FF4D4D" stroke="#202426" stroke-width="0.5"/>
</svg>
