<svg width="64" height="64" viewBox="0 0 64 64" fill="none" xmlns="http://www.w3.org/2000/svg">
<path d="M39.8844 24.266C40.0278 24.8823 40.1048 25.5255 40.1048 26.1847C40.1048 28.5209 39.1571 30.6367 37.6271 32.1684C37.328 32.4658 37.0073 32.7417 36.6669 32.9907C37.2115 33.1555 37.7454 33.349 38.2685 33.5729C43.3224 35.7389 47.2834 40.6458 47.2834 48.2114C47.2834 48.9477 46.685 49.5461 45.9487 49.5461C45.2124 49.5461 44.614 48.9477 44.614 48.2114C44.614 41.8748 41.3678 37.7973 37.2258 36.0219C35.6081 35.3304 33.8578 34.9793 32.1164 34.9757C30.3751 34.9721 28.6284 35.3143 27.0232 36.004C22.9529 37.7543 19.7801 41.8032 19.7801 48.2114C19.7801 48.9477 19.1817 49.5461 18.4454 49.5461C17.7091 49.5461 17.1107 48.9477 17.1107 48.2114C17.1107 40.5652 20.9912 35.6959 25.9716 33.555C26.2779 33.4243 26.5878 33.3024 26.9014 33.1931C26.4553 32.8904 26.0414 32.5464 25.6616 32.1684C24.1317 30.6367 23.184 28.5209 23.184 26.1847C23.184 25.5255 23.2592 24.8823 23.4025 24.266C23.1607 24.2266 22.926 24.1854 22.6985 24.1442C19.8249 23.6103 18.0477 22.6125 18.0477 21.2814C18.0477 20.2728 18.9094 19.4988 20.4215 18.9865C21.276 18.6962 22.41 18.4418 23.7483 18.243V12.4277C23.7483 11.3779 24.8644 10.629 26.6702 10.2654C27.9351 10.0128 29.6477 9.85511 31.5073 9.85511C33.3651 9.85511 35.0796 10.0128 36.3444 10.2654C38.1485 10.629 39.2664 11.3779 39.2664 12.4277L39.4222 18.2269C40.7945 18.4275 41.9626 18.6837 42.8387 18.9775C44.3686 19.4899 45.2411 20.2674 45.2411 21.2814C45.2411 22.6125 43.4639 23.6103 40.5885 24.1442C40.3628 24.1854 40.1281 24.2266 39.8844 24.266ZM34.9524 39.82L35.9969 40.3968C36.0614 40.198 36.0918 40.0027 36.0918 39.811C36.0918 39.6229 36.0614 39.433 36.0004 39.2413L34.9524 39.82ZM35.8482 43.3582L32.1971 41.3427L28.546 43.3582C27.9512 43.6842 27.2131 43.5087 26.8243 42.9712C26.0163 41.9519 25.633 40.8805 25.633 39.811C25.633 38.6716 26.0665 37.5824 26.8781 36.6006C27.3044 36.0864 28.0372 35.9736 28.5925 36.3086L32.1971 38.299L35.8016 36.3086C36.357 35.9736 37.0897 36.0864 37.5161 36.6006C38.3276 37.5824 38.7612 38.6716 38.7612 39.811C38.7612 40.8805 38.3778 41.9519 37.5698 42.9712C37.1811 43.5087 36.443 43.6842 35.8482 43.3582ZM28.3973 40.3968L29.4417 39.82L28.3937 39.2413C28.3328 39.433 28.3005 39.6229 28.3005 39.811C28.3005 40.0027 28.3328 40.198 28.3973 40.3968ZM25.9375 24.5831C25.7942 25.0919 25.719 25.6294 25.719 26.1847C25.719 27.8222 26.3818 29.3038 27.4531 30.3751C28.5245 31.4464 30.006 32.1111 31.6435 32.1111C33.2809 32.1111 34.7643 31.4464 35.8374 30.3787C36.9052 29.3038 37.5698 27.8222 37.5698 26.1847C37.5698 25.6294 37.4928 25.0919 37.3512 24.5831C35.6296 24.7462 33.6894 24.8393 31.6453 24.8393C29.5994 24.8393 27.6592 24.7462 25.9375 24.5831ZM35.8482 12.7412C34.7661 12.5245 33.2308 12.3883 31.5073 12.3883C29.7821 12.3883 28.2486 12.5245 27.1647 12.7412C25.3194 13.1121 26.2815 16.086 26.2815 19.3501C26.2815 19.9843 25.8067 20.5307 25.1636 20.6078C23.5029 20.8048 22.1449 21.0718 21.233 21.3799C21.6737 21.4283 22.3348 21.5071 23.1535 21.6576C25.3015 22.0571 28.3041 22.3043 31.6453 22.3043C34.9847 22.3043 37.9854 22.0571 40.1353 21.6576C40.9558 21.5071 41.615 21.4283 42.0611 21.3799L42.0378 21.3727C41.1116 21.0628 39.7322 20.7941 38.0464 20.5988C37.4319 20.5254 36.9446 20.013 36.9285 19.377C36.8353 16.1129 37.7096 13.1157 35.8482 12.7412ZM31.9982 0C40.8322 0 48.8348 3.58303 54.625 9.37319C60.4152 15.1634 63.9964 23.1643 63.9964 32C63.9964 49.6715 49.6697 64 31.9982 64C23.1643 64 15.1634 60.417 9.37319 54.6268C3.58303 48.8366 0 40.8357 0 32C0 14.3285 14.3267 0 31.9982 0ZM52.7386 11.2597C47.4303 5.9532 40.0976 2.66935 31.9982 2.66935C15.7994 2.66935 2.66935 15.8011 2.66935 32C2.66935 40.0994 5.9514 47.4339 11.2597 52.7403C16.5661 58.0468 23.8988 61.3306 31.9982 61.3306C48.1971 61.3306 61.3289 48.1989 61.3289 32C61.3289 23.9006 58.045 16.5661 52.7386 11.2597Z" fill="#B4B4B4"/>
</svg>
