<svg width="20" height="20" viewBox="0 0 20 20" fill="none" xmlns="http://www.w3.org/2000/svg">
<path d="M15.8788 15.285C15.766 15.285 15.6513 15.2544 15.5482 15.19C14.491 14.5297 13.2035 14.1244 11.4963 13.9141C8.84192 13.5869 6.27754 14.0513 4.45848 15.19C4.16661 15.3732 3.78067 15.2844 3.59723 14.9919C3.41411 14.6991 3.50286 14.3138 3.79567 14.1307C5.85348 12.8429 8.71536 12.3116 11.6491 12.6738C13.5438 12.9072 14.9929 13.37 16.2104 14.1304C16.5032 14.3132 16.5922 14.6988 16.4094 14.9916C16.291 15.1807 16.0872 15.2847 15.8788 15.285Z" fill="white"/>
<path d="M9.85286 7.43816C7.57129 7.43816 5.43004 6.89254 3.79567 5.86973C3.50286 5.6866 3.41411 5.30097 3.59723 5.00847C3.78067 4.71566 4.16661 4.62691 4.45848 4.81035C6.27786 5.94879 8.84348 6.41316 11.496 6.08629C13.2035 5.87566 14.491 5.47004 15.5482 4.81004C15.8416 4.62691 16.2269 4.71629 16.4094 5.0091C16.5922 5.30191 16.5032 5.68722 16.2104 5.87004C14.9929 6.63004 13.5438 7.09316 11.6491 7.32691C11.0457 7.4016 10.4444 7.43816 9.85286 7.43816Z" fill="white"/>
<path d="M10.0249 18.1203C9.28892 18.1203 8.5636 17.8116 7.9286 17.2275C6.83235 16.2197 6.32642 14.7894 6.00798 13.6559C5.68048 12.4909 5.53048 11.1872 5.54829 9.66969C5.56454 8.30063 5.79017 6.92688 6.20173 5.69781C6.73517 4.10281 7.46235 3.01688 8.42454 2.37813C8.91954 2.04969 9.46517 1.87563 10.003 1.875C11.4027 1.87656 12.3514 2.96125 12.7924 3.60719C13.4792 4.61375 13.9414 5.83781 14.2461 7.45938C14.7652 10.2238 14.4424 13.1216 13.3595 15.4091C12.9061 16.3672 12.0936 17.5947 10.7995 18.0009C10.547 18.08 10.2864 18.1203 10.0249 18.1203ZM10.003 3.12469C9.71267 3.125 9.40579 3.22688 9.11579 3.41938C8.39423 3.89813 7.82892 4.77281 7.38704 6.09406C7.01642 7.20188 6.81298 8.44344 6.79829 9.68438C6.78142 11.0809 6.91673 12.2694 7.21142 13.3178C7.48517 14.2922 7.91017 15.5125 8.77454 16.3075C9.2986 16.7891 9.89142 16.9759 10.4249 16.8084C11.2883 16.5375 11.8827 15.6072 12.2295 14.8747C13.2017 12.82 13.4889 10.2013 13.0174 7.69031C12.7458 6.24469 12.3461 5.17094 11.7595 4.31188C11.5164 3.955 10.858 3.12563 10.003 3.12469Z" fill="white"/>
<path d="M10.002 18.125C9.65695 18.125 9.37695 17.845 9.37695 17.5V2.5C9.37695 2.155 9.65695 1.875 10.002 1.875C10.347 1.875 10.627 2.155 10.627 2.5V17.5C10.627 17.845 10.347 18.125 10.002 18.125Z" fill="white"/>
<path d="M17.502 10.625H2.50195C2.15695 10.625 1.87695 10.345 1.87695 10C1.87695 9.655 2.15695 9.375 2.50195 9.375H17.502C17.847 9.375 18.127 9.655 18.127 10C18.127 10.345 17.847 10.625 17.502 10.625Z" fill="white"/>
<path d="M9.98231 18.1206C9.982 18.1206 9.982 18.1206 9.98169 18.1206C9.27138 18.1206 8.56669 18.0281 7.88763 17.8453C4.96169 17.0581 2.67012 14.6341 2.05012 11.6694C1.41887 8.64906 2.58481 5.47406 5.02044 3.58063C6.42887 2.48594 8.20481 1.88281 10.0217 1.88281C11.2795 1.88281 12.5286 2.17531 13.6342 2.72813C16.3639 4.09406 18.1283 6.94781 18.1283 9.99875C18.1283 12.4881 16.9536 14.8875 14.9861 16.4169C13.5729 17.5156 11.7954 18.1206 9.98231 18.1206ZM10.0214 3.13281C8.48106 3.13281 6.97731 3.64219 5.78731 4.5675C3.72575 6.16969 2.73919 8.85719 3.27356 11.4134C3.79794 13.9213 5.73669 15.9722 8.21231 16.6381C8.78544 16.7922 9.38075 16.8706 9.982 16.8706C11.5189 16.8706 13.0236 16.3591 14.2189 15.43C15.8839 14.1356 16.8783 12.105 16.8783 9.99875C16.8783 7.41719 15.3854 5.00219 13.0748 3.84625C12.1423 3.37969 11.0864 3.13281 10.0214 3.13281Z" fill="white"/>
</svg>
