<svg width="17" height="21" viewBox="0 0 17 21" fill="none" xmlns="http://www.w3.org/2000/svg">
<path d="M14.0682 7.52273V6.06818C14.0682 4.5251 13.4552 3.04523 12.3641 1.95411C11.273 0.862985 9.79308 0.25 8.25 0.25C6.70692 0.25 5.22704 0.862985 4.13592 1.95411C3.0448 3.04523 2.43182 4.5251 2.43182 6.06818V7.52273C1.85316 7.52273 1.29821 7.7526 0.88904 8.16177C0.47987 8.57094 0.25 9.12589 0.25 9.70455V18.4318C0.25 19.0105 0.47987 19.5654 0.88904 19.9746C1.29821 20.3838 1.85316 20.6136 2.43182 20.6136H14.0682C14.6468 20.6136 15.2018 20.3838 15.611 19.9746C16.0201 19.5654 16.25 19.0105 16.25 18.4318V9.70455C16.25 9.12589 16.0201 8.57094 15.611 8.16177C15.2018 7.7526 14.6468 7.52273 14.0682 7.52273ZM3.88636 6.06818C3.88636 4.91087 4.3461 3.80097 5.16444 2.98263C5.98278 2.16428 7.09269 1.70455 8.25 1.70455C9.40731 1.70455 10.5172 2.16428 11.3356 2.98263C12.1539 3.80097 12.6136 4.91087 12.6136 6.06818V7.52273H3.88636V6.06818ZM14.7955 18.4318C14.7955 18.6247 14.7188 18.8097 14.5824 18.9461C14.4461 19.0825 14.2611 19.1591 14.0682 19.1591H2.43182C2.23893 19.1591 2.05395 19.0825 1.91756 18.9461C1.78117 18.8097 1.70455 18.6247 1.70455 18.4318V9.70455C1.70455 9.51166 1.78117 9.32668 1.91756 9.19029C2.05395 9.0539 2.23893 8.97727 2.43182 8.97727H14.0682C14.2611 8.97727 14.4461 9.0539 14.5824 9.19029C14.7188 9.32668 14.7955 9.51166 14.7955 9.70455V18.4318Z" fill="white" stroke="#202426" stroke-width="0.5"/>
<path d="M10.9096 12.5904C10.9115 12.1809 10.8054 11.7783 10.6021 11.4229C10.3988 11.0675 10.1054 10.772 9.75157 10.5661C9.39771 10.3602 8.99583 10.2512 8.58641 10.25C8.177 10.2489 7.77451 10.3556 7.41949 10.5595C7.06446 10.7634 6.76943 11.0573 6.56412 11.4115C6.35881 11.7657 6.25047 12.1678 6.25 12.5772C6.24954 12.9866 6.35696 13.3889 6.56147 13.7436C6.76597 14.0983 7.06033 14.3928 7.41489 14.5975V16.0851C7.41489 16.394 7.53762 16.6903 7.75608 16.9088C7.97455 17.1273 8.27085 17.25 8.5798 17.25C8.88875 17.25 9.18505 17.1273 9.40352 16.9088C9.62198 16.6903 9.74471 16.394 9.74471 16.0851V14.5975C10.0978 14.3944 10.3913 14.1021 10.5958 13.7498C10.8002 13.3975 10.9085 12.9977 10.9096 12.5904Z" fill="#00CBB8" stroke="#202426" stroke-width="0.5"/>
</svg>
