<svg width="20" height="20" viewBox="0 0 20 20" fill="none" xmlns="http://www.w3.org/2000/svg">
<path d="M19.2592 12.8778C19.3959 12.6428 19.4686 12.376 19.4703 12.1042V11.0515C19.4703 10.6468 19.3129 10.281 19.0618 10.0015C19.3255 9.71365 19.4723 9.33773 19.4734 8.94733V7.8947C19.4722 7.50382 19.325 7.12749 19.0608 6.83944C19.323 6.55205 19.4689 6.17742 19.4703 5.7884V4.73577C19.4703 4.33103 19.3129 3.96525 19.0618 3.68577C19.3255 3.39789 19.4723 3.02196 19.4734 2.63157V1.57894C19.4734 0.708418 18.765 0 17.8945 0H11.5787C10.7082 0 9.99978 0.708418 9.99978 1.57894V2.63157C9.99978 3.0363 10.1571 3.40209 10.4082 3.68156C10.1443 3.96934 9.9973 4.34529 9.99609 4.73577V5.7884C9.99609 6.19524 10.155 6.56313 10.4087 6.84365C10.1469 7.13123 10.0012 7.50579 9.99978 7.8947C9.99978 8.03429 10.0552 8.16816 10.1539 8.26686C10.2526 8.36557 10.3865 8.42102 10.5261 8.42102C10.6657 8.42102 10.7995 8.36557 10.8983 8.26686C10.997 8.16816 11.0524 8.03429 11.0524 7.8947C11.0524 7.6047 11.2887 7.36839 11.5787 7.36839H17.8945C18.1845 7.36839 18.4208 7.6047 18.4208 7.8947V8.94733C18.4207 9.08646 18.3654 9.21988 18.2672 9.31841C18.169 9.41694 18.0357 9.47256 17.8966 9.47312L17.8908 9.47259H12.6277C12.5585 9.47283 12.49 9.4867 12.4262 9.5134C12.3624 9.5401 12.3044 9.57911 12.2557 9.6282C12.2069 9.67729 12.1683 9.73551 12.1421 9.79952C12.1158 9.86353 12.1024 9.93209 12.1027 10.0013C12.1029 10.0705 12.1168 10.1389 12.1435 10.2027C12.1702 10.2666 12.2092 10.3245 12.2583 10.3733C12.3074 10.422 12.3656 10.4606 12.4296 10.4869C12.4936 10.5131 12.5622 10.5265 12.6313 10.5263H17.8955C18.0341 10.5275 18.1666 10.5834 18.2643 10.6817C18.3619 10.7801 18.4168 10.9129 18.4171 11.0515V12.1042C18.4171 12.3942 18.1808 12.6305 17.8908 12.6305H13.154C13.0848 12.6307 13.0163 12.6446 12.9525 12.6713C12.8887 12.698 12.8307 12.737 12.782 12.7861C12.7332 12.8352 12.6946 12.8934 12.6684 12.9574C12.6421 13.0214 12.6287 13.09 12.629 13.1592C12.6292 13.2283 12.6431 13.2968 12.6698 13.3606C12.6965 13.4245 12.7355 13.4824 12.7846 13.5311C12.8337 13.5799 12.8919 13.6185 12.9559 13.6448C13.0199 13.671 13.0885 13.6844 13.1577 13.6842H18.4208C18.7108 13.6842 18.9471 13.9205 18.9471 14.2105V15.2631C18.9471 15.5531 18.7108 15.7894 18.4208 15.7894H17.9013L17.8913 15.7884H12.6282C12.559 15.7886 12.4905 15.8025 12.4267 15.8292C12.3629 15.8559 12.3049 15.8949 12.2562 15.944C12.2074 15.9931 12.1688 16.0513 12.1426 16.1153C12.1163 16.1793 12.1029 16.2479 12.1032 16.317C12.1034 16.3862 12.1173 16.4547 12.144 16.5185C12.1707 16.5823 12.2097 16.6403 12.2588 16.689C12.3079 16.7378 12.3661 16.7764 12.4301 16.8026C12.4941 16.8289 12.5627 16.8423 12.6319 16.842H17.8966C18.0351 16.8434 18.1674 16.8993 18.265 16.9977C18.3625 17.096 18.4174 17.2288 18.4176 17.3673V18.4199C18.4176 18.7099 18.1813 18.9462 17.8913 18.9462H11.5756C11.2856 18.9462 11.0492 18.7099 11.0492 18.4199C11.0492 18.2803 10.9938 18.1465 10.8951 18.0478C10.7964 17.9491 10.6625 17.8936 10.5229 17.8936C10.3833 17.8936 10.2495 17.9491 10.1508 18.0478C10.0521 18.1465 9.99662 18.2803 9.99662 18.4199C9.99662 19.2904 10.705 19.9989 11.5756 19.9989H17.8913C18.7618 19.9989 19.4703 19.2904 19.4703 18.4199V17.3673C19.4703 17.0857 19.3903 16.8247 19.2603 16.5952C19.4861 16.4538 19.6724 16.2575 19.8018 16.0245C19.9311 15.7915 19.9992 15.5295 19.9997 15.2631V14.2105C19.9992 13.9438 19.931 13.6816 19.8015 13.4486C19.672 13.2155 19.4854 13.0191 19.2592 12.8778ZM11.0492 4.73577C11.0494 4.59664 11.1046 4.46322 11.2028 4.36469C11.3011 4.26616 11.4343 4.21054 11.5735 4.20998L11.5792 4.21051H17.8961C18.0346 4.21175 18.1671 4.26761 18.2648 4.36595C18.3624 4.46429 18.4174 4.59718 18.4176 4.73577V5.7884C18.4176 6.07839 18.1813 6.31471 17.8913 6.31471H11.5756C11.2856 6.31471 11.0492 6.07839 11.0492 5.7884V4.73577ZM11.0524 1.57894C11.0524 1.28894 11.2887 1.05263 11.5787 1.05263H17.8945C18.1845 1.05263 18.4208 1.28894 18.4208 1.57894V2.63157C18.4207 2.7707 18.3654 2.90412 18.2672 3.00265C18.169 3.10117 18.0357 3.1568 17.8966 3.15735L17.8908 3.15683H11.574C11.4354 3.15558 11.3029 3.09972 11.2053 3.00138C11.1076 2.90304 11.0527 2.77016 11.0524 2.63157V1.57894Z" fill="white"/>
<path d="M6.84208 6.31445C3.06946 6.31445 0 9.38391 0 13.1565C0 16.9291 3.06946 19.9986 6.84208 19.9986C10.6147 19.9986 13.6842 16.9291 13.6842 13.1565C13.6842 9.38391 10.6147 6.31445 6.84208 6.31445ZM6.84208 18.946C3.64998 18.946 1.05263 16.3486 1.05263 13.1565C1.05263 9.96444 3.64998 7.36708 6.84208 7.36708C10.0342 7.36708 12.6315 9.96444 12.6315 13.1565C12.6315 16.3486 10.0342 18.946 6.84208 18.946Z" fill="white"/>
<path d="M6.78985 10.5329C6.8088 10.535 6.82511 10.544 6.84459 10.544C6.86354 10.544 6.87985 10.535 6.89827 10.5329C7.16708 10.5465 7.42042 10.6627 7.60608 10.8576C7.79173 11.0525 7.89556 11.3111 7.89616 11.5803C7.89616 11.7199 7.95161 11.8537 8.05032 11.9524C8.14902 12.0511 8.28289 12.1066 8.42248 12.1066C8.56206 12.1066 8.69593 12.0511 8.79464 11.9524C8.89334 11.8537 8.94879 11.7199 8.94879 11.5803C8.94879 10.6024 8.27563 9.78555 7.37037 9.54976L7.36985 8.94819C7.36985 8.8086 7.3144 8.67473 7.2157 8.57603C7.11699 8.47733 6.98312 8.42188 6.84354 8.42188C6.70395 8.42188 6.57008 8.47733 6.47138 8.57603C6.37267 8.67473 6.31722 8.8086 6.31722 8.94819L6.31775 9.54871C5.41196 9.78397 4.73828 10.6013 4.73828 11.5792C4.73828 12.7403 5.68249 13.6845 6.84354 13.6845C7.42406 13.6845 7.89616 14.1566 7.89616 14.7371C7.89616 15.3176 7.42406 15.7897 6.84354 15.7897C6.26301 15.7897 5.79091 15.3176 5.79091 14.7371C5.79091 14.5975 5.73546 14.4637 5.63675 14.365C5.53805 14.2662 5.40418 14.2108 5.26459 14.2108C5.12501 14.2108 4.99114 14.2662 4.89244 14.365C4.79373 14.4637 4.73828 14.5975 4.73828 14.7371C4.73828 15.715 5.41196 16.5324 6.31722 16.7676L6.31775 17.3855C6.31775 17.5251 6.3732 17.659 6.4719 17.7577C6.57061 17.8564 6.70447 17.9118 6.84406 17.9118C6.98365 17.9118 7.11752 17.8564 7.21622 17.7577C7.31492 17.659 7.37037 17.5251 7.37037 17.3855L7.36985 16.7682C8.27511 16.5329 8.94879 15.7155 8.94879 14.7376C8.94879 13.5766 8.00458 12.6324 6.84354 12.6324C6.26301 12.6324 5.79091 12.1603 5.79091 11.5798C5.79178 11.3106 5.89586 11.052 6.0817 10.8572C6.26754 10.6625 6.521 10.5464 6.78985 10.5329Z" fill="white"/>
</svg>
