<svg width="207" height="69" viewBox="0 0 207 69" fill="none" xmlns="http://www.w3.org/2000/svg">
<path d="M136.092 18.708V40.696C136.092 44.1 135.126 46.722 133.194 48.562C131.293 50.402 128.717 51.322 125.466 51.322C122.062 51.322 119.333 50.356 117.278 48.424C115.223 46.492 114.196 43.7473 114.196 40.19H122.016C122.016 41.5393 122.292 42.5667 122.844 43.272C123.396 43.9467 124.193 44.284 125.236 44.284C126.187 44.284 126.923 43.9773 127.444 43.364C127.965 42.7507 128.226 41.8613 128.226 40.696V18.708H136.092ZM157.718 51.322C154.682 51.322 151.891 50.6167 149.346 49.206C146.831 47.7953 144.822 45.8327 143.32 43.318C141.848 40.7727 141.112 37.9207 141.112 34.762C141.112 31.6033 141.848 28.7667 143.32 26.252C144.822 23.7373 146.831 21.7747 149.346 20.364C151.891 18.9533 154.682 18.248 157.718 18.248C160.754 18.248 163.529 18.9533 166.044 20.364C168.589 21.7747 170.582 23.7373 172.024 26.252C173.496 28.7667 174.232 31.6033 174.232 34.762C174.232 37.9207 173.496 40.7727 172.024 43.318C170.552 45.8327 168.558 47.7953 166.044 49.206C163.529 50.6167 160.754 51.322 157.718 51.322ZM157.718 44.146C160.294 44.146 162.348 43.2873 163.882 41.57C165.446 39.8527 166.228 37.5833 166.228 34.762C166.228 31.91 165.446 29.6407 163.882 27.954C162.348 26.2367 160.294 25.378 157.718 25.378C155.111 25.378 153.026 26.2213 151.462 27.908C149.928 29.5947 149.162 31.8793 149.162 34.762C149.162 37.614 149.928 39.8987 151.462 41.616C153.026 43.3027 155.111 44.146 157.718 44.146ZM198.158 34.44C200.029 34.8387 201.531 35.774 202.666 37.246C203.801 38.6873 204.368 40.3433 204.368 42.214C204.368 44.9127 203.417 47.0593 201.516 48.654C199.645 50.218 197.023 51 193.65 51H178.608V18.708H193.144C196.425 18.708 198.986 19.4593 200.826 20.962C202.697 22.4647 203.632 24.504 203.632 27.08C203.632 28.9813 203.126 30.5607 202.114 31.818C201.133 33.0753 199.814 33.9493 198.158 34.44ZM186.474 31.772H191.626C192.914 31.772 193.895 31.496 194.57 30.944C195.275 30.3613 195.628 29.518 195.628 28.414C195.628 27.31 195.275 26.4667 194.57 25.884C193.895 25.3013 192.914 25.01 191.626 25.01H186.474V31.772ZM192.27 44.652C193.589 44.652 194.601 44.3607 195.306 43.778C196.042 43.1647 196.41 42.2907 196.41 41.156C196.41 40.0213 196.027 39.132 195.26 38.488C194.524 37.844 193.497 37.522 192.178 37.522H186.474V44.652H192.27Z" fill="white"/>
<path d="M24.242 28.092C24.242 30.852 23.3373 33.0753 21.528 34.762C19.7187 36.4487 17.0047 37.292 13.386 37.292H6.9V51H3.68V18.846H13.386C16.974 18.846 19.6727 19.6893 21.482 21.376C23.322 23.0627 24.242 25.3013 24.242 28.092ZM13.386 34.532C18.4153 34.532 20.93 32.3853 20.93 28.092C20.93 25.9453 20.332 24.32 19.136 23.216C17.94 22.112 16.0233 21.56 13.386 21.56H6.9V34.532H13.386ZM48.2748 43.364H33.6468L30.8408 51H27.4368L39.1668 19.26H42.8008L54.4848 51H51.0808L48.2748 43.364ZM47.3088 40.696L40.9608 23.308L34.6128 40.696H47.3088ZM76.7647 51L68.8067 37.568H62.8727V51H59.6527V18.846H69.3127C72.9007 18.846 75.6147 19.7047 77.4547 21.422C79.3253 23.1393 80.2607 25.3933 80.2607 28.184C80.2607 30.5147 79.586 32.508 78.2367 34.164C76.918 35.7893 74.9553 36.8473 72.3487 37.338L80.6287 51H76.7647ZM62.8727 34.946H69.3587C71.8733 34.946 73.7593 34.3327 75.0167 33.106C76.3047 31.8793 76.9487 30.2387 76.9487 28.184C76.9487 26.068 76.3353 24.4427 75.1087 23.308C73.882 22.1427 71.95 21.56 69.3127 21.56H62.8727V34.946ZM105.281 43.364H90.6527L87.8467 51H84.4427L96.1727 19.26H99.8067L111.491 51H108.087L105.281 43.364ZM104.315 40.696L97.9667 23.308L91.6187 40.696H104.315Z" fill="white"/>
</svg>
