<svg width="40" height="39" viewBox="0 0 40 39" fill="none" xmlns="http://www.w3.org/2000/svg">
    <g clip-path="url(#clip0_10321_3067)">
        <g filter="url(#filter0_d_10321_3067)">
            <path
                d="M30.1626 14.8491L28.7685 13.7123V9.95898C28.7802 9.82091 28.7631 9.68192 28.7183 9.5508C28.6735 9.41968 28.602 9.29929 28.5082 9.19726C28.4145 9.09523 28.3006 9.01378 28.1737 8.95806C28.0468 8.90234 27.9098 8.87357 27.7712 8.87357C27.6327 8.87357 27.4956 8.90234 27.3687 8.95806C27.2419 9.01378 27.128 9.09523 27.0342 9.19726C26.9405 9.29929 26.8689 9.41968 26.8241 9.5508C26.7793 9.68192 26.7622 9.82091 26.7739 9.95898V12.0537L23.1635 9.12967C22.2697 8.3991 21.1508 8 19.9964 8C18.842 8 17.7231 8.3991 16.8293 9.12967L9.83021 14.8491C9.25793 15.3134 8.79661 15.8997 8.47996 16.5651C8.16331 17.2306 7.99933 17.9584 8 18.6953V26.774C8 28.1013 8.52726 29.3742 9.46578 30.3127C10.4043 31.2512 11.6772 31.7785 13.0045 31.7785H26.9955C28.3228 31.7785 29.5957 31.2512 30.5342 30.3127C31.4727 29.3742 32 28.1013 32 26.774V18.6668C31.9956 17.9341 31.8284 17.2115 31.5107 16.5513C31.1929 15.891 30.7325 15.3096 30.1626 14.8491ZM17.0009 29.7409V22.8205C17.0385 22.0504 17.3709 21.3243 17.9292 20.7925C18.4875 20.2608 19.229 19.9643 20 19.9643C20.771 19.9643 21.5125 20.2608 22.0708 20.7925C22.6291 21.3243 22.9615 22.0504 22.9991 22.8205V29.7409H17.0009ZM30.0054 26.7454C30.0035 27.5393 28.7351 23.167 28.1737 23.7283C27.6123 24.2897 27.8281 26.7721 27.0342 26.774L25.0009 29.7409L28.3753 28.0179L24.2876 23.5C24.2876 22.1727 23.4385 21.4385 22.5 20.5C21.5615 19.5615 21.3237 17.816 19.9964 17.816C18.6692 17.816 16.6663 20.7925 16.6663 20.7925C15.7278 21.7311 14.992 21.4932 14.992 22.8205L15.1717 29.665C14.3765 29.665 14.1045 21.7117 13.5416 21.1502C12.9787 20.5886 13.0019 22.7951 13 22C12.8096 22.4019 12.9995 21.5553 13 22C13.1904 21.5981 14.6927 30.8518 15.0372 30.5705L16.6401 20.8686C17.176 20.4345 19.3067 17.816 19.9964 17.816C20.6862 17.816 25.6946 25.7964 26.2306 26.2306L30.1626 18.3664C30.5124 18.6449 29.5085 16.9749 29.7039 17.377C29.8994 17.779 24.9979 29.2939 25.0009 29.7409L30.0054 26.7454Z"
                fill="#00CBB8" />
        </g>
    </g>
    <defs>
        <filter id="filter0_d_10321_3067" x="-2" y="-2" width="44" height="43.7773"
            filterUnits="userSpaceOnUse" color-interpolation-filters="sRGB">
            <feFlood flood-opacity="0" result="BackgroundImageFix" />
            <feColorMatrix in="SourceAlpha" type="matrix"
                values="0 0 0 0 0 0 0 0 0 0 0 0 0 0 0 0 0 0 127 0" result="hardAlpha" />
            <feOffset />
            <feGaussianBlur stdDeviation="5" />
            <feComposite in2="hardAlpha" operator="out" />
            <feColorMatrix type="matrix"
                values="0 0 0 0 0 0 0 0 0 0.796078 0 0 0 0 0.721569 0 0 0 1 0" />
            <feBlend mode="normal" in2="BackgroundImageFix" result="effect1_dropShadow_10321_3067" />
            <feBlend mode="normal" in="SourceGraphic" in2="effect1_dropShadow_10321_3067"
                result="shape" />
        </filter>
        <clipPath id="clip0_10321_3067">
            <rect width="40" height="39" fill="white" />
        </clipPath>
    </defs>
</svg>