<svg width="40" height="39" viewBox="0 0 40 39" fill="none" xmlns="http://www.w3.org/2000/svg">
    <g filter="url(#filter0_d_10321_1961)">
        <path
            d="M21.9377 28.502C22.5521 28.5196 23.1552 28.6652 23.7059 28.9287H23.7391C24.1992 29.2934 24.2773 29.9442 23.9159 30.4008C23.2578 31.3157 22.2048 31.8925 21.0536 31.9688C19.8709 32.1058 18.6798 31.7878 17.7382 31.0835C17.2539 30.7609 16.9392 30.2507 16.8762 29.6861C16.8762 29.0887 17.4509 28.8114 17.9813 28.694C18.6026 28.5669 19.236 28.5026 19.8711 28.502H21.9377ZM20.5452 8C24.369 8 28.3143 10.6881 28.7232 14.5816C28.7896 15.3816 28.7232 16.2136 28.7896 17.0243C29.0065 18.0698 29.506 19.0413 30.2373 19.8404C30.6919 20.4971 30.9553 21.2598 30.9999 22.0485V22.2938C31.0066 23.3581 30.6141 24.3887 29.8947 25.1953C28.9829 26.1423 27.7458 26.7374 26.4135 26.87C22.4771 27.3606 18.4918 27.3606 14.5554 26.87C13.2074 26.7475 11.9529 26.1515 11.03 25.1953C10.3332 24.381 9.96779 23.3494 10.0022 22.2938V22.0485C10.0454 21.2627 10.3006 20.5015 10.7427 19.8404C11.4772 19.0406 11.9837 18.0701 12.2125 17.0243C12.2788 16.2136 12.2125 15.3923 12.2788 14.5816C12.6988 10.6881 16.5667 8 20.4347 8H20.5452Z"
            fill="#00CBB8" />
    </g>
    <defs>
        <filter id="filter0_d_10321_1961" x="5" y="3" width="31" height="34"
            filterUnits="userSpaceOnUse" color-interpolation-filters="sRGB">
            <feFlood flood-opacity="0" result="BackgroundImageFix" />
            <feColorMatrix in="SourceAlpha" type="matrix"
                values="0 0 0 0 0 0 0 0 0 0 0 0 0 0 0 0 0 0 127 0" result="hardAlpha" />
            <feOffset />
            <feGaussianBlur stdDeviation="2.5" />
            <feComposite in2="hardAlpha" operator="out" />
            <feColorMatrix type="matrix"
                values="0 0 0 0 0 0 0 0 0 0.796078 0 0 0 0 0.721569 0 0 0 1 0" />
            <feBlend mode="normal" in2="BackgroundImageFix" result="effect1_dropShadow_10321_1961" />
            <feBlend mode="normal" in="SourceGraphic" in2="effect1_dropShadow_10321_1961"
                result="shape" />
        </filter>
    </defs>
</svg>