<svg width="50" height="50" viewBox="0 0 50 50" fill="none" xmlns="http://www.w3.org/2000/svg">
<g clip-path="url(#clip0_11010_30491)">
<path d="M46.6142 13.4937C34.6845 0.320969 22.7548 16.4814 10.8251 3.30859C10.8251 6.79451 9.31445 9.759 9.31445 13.2449C9.31445 16.549 10.8251 20.3748 10.8251 23.6789C22.7548 30.0616 34.6845 7.11101 46.6142 13.4937Z" fill="#00CCB8"/>
<path d="M9.31535 46.5929C8.48105 46.5929 7.80469 45.9165 7.80469 45.0823V1.51056C7.80469 0.676358 8.48105 0 9.31535 0C10.1497 0 10.826 0.676358 10.826 1.51056V45.0823C10.826 45.9165 10.1497 46.5929 9.31535 46.5929Z" fill="#293A4B"/>
<path d="M13.3086 24.6033C22.2411 26.5455 31.1735 14.326 40.106 12.5698C31.1736 10.6277 22.2411 22.8472 13.3086 24.6033Z" fill="#00AF9E"/>
<path d="M14.8572 45.9685L16.4126 50.0001H7.74255V47.2058C7.75634 46.4182 7.43541 45.6617 6.85935 45.1243L4.27032 42.7088C3.70674 42.183 3.38672 41.4468 3.38672 40.676V37.1048C3.38672 35.5694 4.63149 34.3247 6.1669 34.3247H10.8254L10.8063 31.6777H12.0769C13.6124 31.6777 14.857 32.9224 14.857 34.4578V45.9685H14.8572Z" fill="#F3EBC5"/>
<path d="M14.8573 45.9684V34.4578C14.8573 32.9224 13.6126 31.6777 12.0772 31.6777H10.8066L10.8252 34.2567C10.8299 34.3232 10.8332 34.3901 10.8332 34.4579V45.9685L12.3885 50H16.4127L14.8573 45.9684Z" fill="#F4EABA"/>
<path d="M7.74219 49.9993V47.2051H15.3341L16.4122 49.9993H7.74219Z" fill="#293A4B"/>
<path d="M15.3347 47.2051H11.3105L12.3886 49.9993H16.4128L15.3347 47.2051Z" fill="#293A4B"/>
</g>
<defs>
<clipPath id="clip0_11010_30491">
<rect width="50" height="50" fill="white"/>
</clipPath>
</defs>
</svg>
