<svg width="25" height="25" viewBox="0 0 25 25" fill="none" xmlns="http://www.w3.org/2000/svg">
<path d="M23.1277 4.30859H1.87231C0.838233 4.30859 0 5.14683 0 6.18091V18.8156C0 19.8497 0.838233 20.6879 1.87231 20.6879H23.1277C24.1617 20.6879 25 19.8497 25 18.8156V6.18091C25 5.14683 24.1618 4.30859 23.1277 4.30859Z" fill="#41479B"/>
<path d="M24.9741 5.87144C24.8265 4.98477 24.0562 4.30859 23.1277 4.30859H22.6405L14.6552 9.54038V4.30864H10.3448V9.54043L2.35947 4.30864H1.87231C0.94375 4.30864 0.173486 4.98477 0.0259277 5.87148L6.85103 10.3432H0V14.6535H6.85103L0.0259277 19.1251C0.173486 20.0118 0.94375 20.6879 1.87231 20.6879H2.35947L10.3448 15.4562V20.6879H14.6552V15.4562L22.6405 20.6879H23.1277C24.0562 20.6879 24.8265 20.0118 24.9741 19.1251L18.149 14.6534H25V10.3431H18.149L24.9741 5.87144Z" fill="#F5F5F5"/>
<path d="M13.7931 4.30859H11.2069V11.2051H0V13.7914H11.2069V20.6879H13.7931V13.7914H25V11.2051H13.7931V4.30859Z" fill="#FF4B55"/>
<path d="M1.21138 20.5661L10.3219 14.6523H8.73848L0.451172 20.0318C0.653955 20.2685 0.914551 20.454 1.21138 20.5661Z" fill="#FF4B55"/>
<path d="M16.9135 14.6523H15.3301L24.1541 20.3801C24.401 20.218 24.6071 19.9989 24.7541 19.7417L16.9135 14.6523Z" fill="#FF4B55"/>
<path d="M0.197266 5.34536L7.89893 10.3447H9.48232L0.755176 4.67969C0.52085 4.8541 0.329102 5.08213 0.197266 5.34536Z" fill="#FF4B55"/>
<path d="M16.2377 10.3416L24.5402 4.95215C24.3352 4.71626 24.0725 4.53188 23.7736 4.42188L14.6543 10.3416H16.2377Z" fill="#FF4B55"/>
</svg>
