<svg width="40" height="39" viewBox="0 0 40 39" fill="none" xmlns="http://www.w3.org/2000/svg">
    <path
        d="M16.7673 29.737C17.3253 30.4263 18.1447 30.8724 19.0443 30.9766C19.9438 31.0808 20.8492 30.8344 21.5601 30.292C21.7788 30.1316 21.9755 29.9451 22.1457 29.737M10.0009 21.9658V21.7249C10.0368 21.0123 10.2689 20.3217 10.6732 19.7246C11.3462 19.0072 11.8069 18.1281 12.007 17.1796C12.007 16.4465 12.007 15.7029 12.072 14.9697C12.4082 11.4403 15.954 9 19.4565 9H19.5432C23.0457 9 26.5915 11.4403 26.9385 14.9697C27.0036 15.7029 26.9385 16.4465 26.9927 17.1796C27.1955 18.1303 27.6557 19.0121 28.3265 19.735C28.7338 20.3269 28.9663 21.0149 28.9988 21.7249V21.9554C29.023 22.9128 28.6879 23.8465 28.0554 24.5841C27.2195 25.4466 26.0853 25.9832 24.8674 26.0923C21.2961 26.4693 17.6928 26.4693 14.1215 26.0923C12.9049 25.9785 11.7723 25.4427 10.9335 24.5841C10.3107 23.8459 9.98015 22.9178 10.0009 21.9658Z"
        stroke="white" stroke-width="1.5" stroke-linecap="round" stroke-linejoin="round" />
</svg>