<svg width="40" height="39" viewBox="0 0 40 39" fill="none" xmlns="http://www.w3.org/2000/svg">
    <path
        d="M30.1626 14.8491L28.7685 13.7123V9.95898C28.7802 9.82091 28.7631 9.68192 28.7183 9.5508C28.6735 9.41968 28.602 9.29929 28.5082 9.19726C28.4145 9.09523 28.3006 9.01378 28.1737 8.95806C28.0468 8.90234 27.9098 8.87357 27.7712 8.87357C27.6327 8.87357 27.4956 8.90234 27.3687 8.95806C27.2419 9.01378 27.128 9.09523 27.0342 9.19726C26.9405 9.29929 26.8689 9.41968 26.8241 9.5508C26.7793 9.68192 26.7622 9.82091 26.7739 9.95898V12.0537L23.1635 9.12967C22.2697 8.3991 21.1508 8 19.9964 8C18.842 8 17.7231 8.3991 16.8293 9.12967L9.83021 14.8491C9.25793 15.3134 8.79661 15.8997 8.47996 16.5651C8.16331 17.2306 7.99933 17.9584 8 18.6953V26.774C8 28.1013 8.52726 29.3742 9.46578 30.3127C10.4043 31.2512 11.6772 31.7785 13.0045 31.7785H26.9955C28.3228 31.7785 29.5957 31.2512 30.5342 30.3127C31.4727 29.3742 32 28.1013 32 26.774V18.6668C31.9956 17.9341 31.8284 17.2115 31.5107 16.5513C31.1929 15.891 30.7325 15.3096 30.1626 14.8491ZM17.0009 29.7409V22.8205C17.0385 22.0504 17.3709 21.3243 17.9292 20.7925C18.4875 20.2608 19.229 19.9643 20 19.9643C20.771 19.9643 21.5125 20.2608 22.0708 20.7925C22.6291 21.3243 22.9615 22.0504 22.9991 22.8205V29.7409H17.0009ZM30.0054 26.7454C30.0035 27.5393 29.6873 28.3001 29.1259 28.8615C28.5645 29.4228 27.8037 29.739 27.0098 29.7409H25.0009V22.8205C25.0009 21.4932 24.4736 20.2203 23.5351 19.2818C22.5966 18.3432 21.3237 17.816 19.9964 17.816C18.6692 17.816 17.3963 18.3432 16.4577 19.2818C15.5192 20.2203 14.992 21.4932 14.992 22.8205V29.7409H12.9902C12.195 29.7409 11.4324 29.4256 10.8695 28.864C10.3066 28.3024 9.98938 27.5405 9.98749 26.7454V18.6668C9.98702 18.222 10.0856 17.7828 10.276 17.3809C10.4665 16.979 10.744 16.6245 11.0885 16.3432L18.0876 10.6239C18.6235 10.1897 19.2924 9.95278 19.9821 9.95278C20.6719 9.95278 21.3407 10.1897 21.8767 10.6239L28.8758 16.3432C29.2255 16.6217 29.5085 16.9749 29.7039 17.377C29.8994 17.779 30.0024 18.2197 30.0054 18.6668V26.7454Z"
        fill="white" stroke="black" stroke-width="0.7" />
</svg>